<svg version="1.1" xmlns="http://www.w3.org/2000/svg" width="400" height="400" viewBox="0 0 400 400"><path d="M188.219 10.411c8.179 0.317 16.335 0.334 24.519 0.266 27.19 -0.225 27.19 -0.225 40.155 2.546l2.048 0.417C265.973 15.939 276.395 19.62 286.777 23.967l1.849 0.771C303.562 31.083 317.388 39.932 329.752 50.413l2.047 1.724c2.124 1.855 4.174 3.77 6.217 5.714l1.52 1.425C371.069 89.01 389.843 129.086 395.041 171.901l0.24 1.926c5.394 47.664 -10.112 96.917 -39.698 134.319 -4.226 5.231 -8.789 10.136 -13.434 14.995l-1.592 1.694c-4.088 4.245 -8.678 7.868 -13.284 11.529l-2.393 1.963C312.577 348.182 298.74 355.748 284.298 361.983l-1.65 0.716c-21.364 9.076 -44.129 11.809 -67.132 11.82l-4.066 0.008q-4.24 0.007 -8.481 0.006c-3.575 0 -7.15 0.012 -10.726 0.026q-4.195 0.012 -8.39 0.011 -1.974 0 -3.947 0.011c-12.854 0.058 -25.664 -0.832 -38.222 -3.712l-2.423 -0.55C114.107 364.429 89.764 352.559 70.248 335.537a600.826 600.826 0 0 0 -2.586 -2.131C57.331 324.903 48.449 315.725 40.496 304.959l-1.24 -1.67C33.21 295.095 27.84 286.718 23.14 277.686l-0.825 -1.544C12.701 257.963 7.187 237.588 4.132 217.355l-0.322 -2.036C-0.902 184.606 4.194 151.859 15.702 123.14l0.702 -1.759C22.85 105.525 31.457 91.03 42.149 77.686l2.073 -2.631C47.707 70.701 51.349 66.666 55.372 62.81l1.931 -1.937C68.732 49.476 80.99 40.169 95.041 32.231l1.605 -0.922c28.24 -16.127 59.325 -22.209 91.573 -20.898M161.157 22.314l-3.08 1.043c-22.969 8.029 -44.123 20.417 -62.002 36.921 -1.635 1.499 -3.307 2.92 -5.011 4.339C79.501 74.762 68.273 87.95 61.157 101.653v2.479l2.202 0.86c7.869 3.126 15.618 6.531 23.322 10.044q1.695 0.769 3.397 1.524c1.617 0.719 3.225 1.455 4.831 2.197l2.85 1.292C100 121.488 100 121.488 101.24 123.431c0.534 2.836 -0.01 4.23 -1.121 6.887l-1.196 2.876q-0.697 1.587 -1.403 3.17l-0.748 1.678a807.438 807.438 0 0 1 -5.165 11.206c-1.664 3.555 -3.316 7.116 -4.967 10.677l-1.019 2.198c-3.329 7.202 -6.543 14.451 -9.744 21.711a1381.818 1381.818 0 0 1 -13.12 28.874l-0.756 1.617q-1.765 3.769 -3.566 7.519c-0.992 2.074 -1.959 4.152 -2.908 6.245q-0.746 1.598 -1.496 3.196l-1.324 2.894C51.24 236.364 51.24 236.364 49.17 237.143c-2.617 0.06 -4.603 -0.65 -7.021 -1.606 0.503 4.803 1.782 9.047 3.409 13.584l0.788 2.209c6.302 17.393 14.752 33.601 26.195 48.201 0.901 1.152 1.779 2.322 2.653 3.493C88.604 320.38 105.598 333.79 123.967 345.455l1.483 0.945c24.73 15.536 60.487 29.088 89.697 22.719C247.099 361.544 277.12 347.685 301.653 325.62l3.357 -2.841c7.645 -6.774 14.37 -13.95 20.391 -22.188a242.149 242.149 0 0 1 3.289 -4.328C340.04 281.438 357.025 255.64 357.025 236.364h-9.917c-6.874 -14.484 -13.589 -29.025 -20.056 -43.696 -3.713 -8.417 -7.541 -16.758 -11.565 -25.031 -2.824 -5.837 -5.406 -11.758 -7.927 -17.731 -4.327 -10.302 -4.327 -10.302 -9.364 -20.266 -1.174 -2.678 -0.77 -5.263 -0.674 -8.151l2.132 -0.667c2.902 -1.012 5.608 -2.217 8.386 -3.533l1.574 -0.741q2.479 -1.168 4.953 -2.342a2829.752 2829.752 0 0 1 6.489 -3.064l1.589 -0.75c4.186 -1.959 8.436 -3.721 12.742 -5.402 1.933 -0.691 1.933 -0.691 2.63 -2.509 -6.322 -9.876 -13.038 -19.185 -20.661 -28.099l-2.099 -2.457c-3.718 -4.236 -7.63 -7.983 -11.95 -11.593l-2.425 -2.115C291.14 49.747 280.597 42.778 269.421 36.364l-1.49 -0.862C253.364 27.153 237.617 21.826 221.488 17.355l-1.697 -0.475C199.488 11.365 180.58 15.574 161.157 22.314" fill="#3F195E"/><path d="M181.818 113.223c4.074 2.347 7.198 5.24 9.917 9.091 5.416 -1.579 5.416 -1.579 10.76 -3.38 10.752 -3.879 17.831 -2.226 28.151 2.519 2.387 1.132 4.766 2.281 7.145 3.433 16.699 7.971 34.499 8.322 52.291 4.04 1.973 2.441 3.268 4.833 4.507 7.712l1.14 2.623 1.172 2.733a746.281 746.281 0 0 0 9.752 21.618c2.579 5.506 5.113 11.031 7.655 16.553l0.926 2.01c4.163 9.045 8.256 18.112 12.149 27.278l0.895 2.098 0.752 1.783c0.777 1.755 0.777 1.755 2.376 4.021 -0.017 1.663 -0.017 1.663 -0.826 3.306 -2.025 1.204 -2.025 1.204 -4.7 2.325l-2.958 1.288 -1.548 0.668c-7.933 3.498 -15.504 7.725 -22.986 12.089a1979.339 1979.339 0 0 1 -5.912 3.426Q286.731 243.779 280.992 247.107l0.807 1.488c1.491 3.206 1.289 6.131 0.278 9.485 -2.134 5.343 -4.663 8.172 -9.866 10.774 -4.225 0.86 -8.411 0.693 -12.707 0.568l-0.426 1.663c-1.535 5.592 -3.047 9.502 -8.148 12.645 -4.825 2.284 -10.188 1.658 -15.393 1.395l-0.642 1.482C232.314 291.93 229.562 294.671 223.967 296.694c-3.758 0.893 -6.752 0.975 -10.537 0.155L210.744 296.694c-1.909 2.073 -1.909 2.073 -3.002 3.661 -2.041 2.344 -4.746 3.211 -7.741 3.777 -4.64 0.216 -8.471 -0.313 -13.017 -1.394 -5.362 -1.153 -9.174 -0.911 -14.473 0.745 -6.14 1.76 -12.257 0.921 -17.965 -1.831 -4.343 -2.658 -7.754 -5.807 -10.744 -9.917v-1.653l-1.879 0.145c-6.344 0.279 -11.164 -0.355 -16.303 -4.278 -4.124 -4.422 -5.678 -8.992 -6.612 -14.876l-3.202 -0.207c-6.234 -0.736 -11.474 -2.429 -15.806 -7.128 -3.821 -4.874 -4.34 -8.955 -4.132 -14.979l-1.394 -0.217c-5.946 -1.094 -10.328 -3.241 -14.618 -7.531C75.865 234.566 76.496 227.802 77.686 220.661l-9.091 -3.306c0.433 -4.801 1.831 -8.491 3.9 -12.82l0.936 -2.006c0.998 -2.138 2.007 -4.271 3.016 -6.404q1.56 -3.333 3.116 -6.669 0.982 -2.1 1.969 -4.197c2.787 -5.928 5.471 -11.901 8.142 -17.883 1.84 -4.098 3.719 -8.179 5.598 -12.261l0.965 -2.096q2.427 -5.273 4.86 -10.541l1.797 -3.898 0.847 -1.829c1.065 -2.314 2.066 -4.581 2.872 -7.001 3.309 -0.639 6.517 -0.923 9.884 -1.024 18.245 -0.606 35.544 -6.202 51.996 -13.903 4.582 -2.101 8.464 -3.707 13.326 -1.602m-0.826 14.05 -1.653 1.653 4.132 -0.826zm-8.939 3.706 -1.893 0.883 -2.031 0.989 -2.107 1.016c-14.835 7.302 -36.574 18.261 -43.554 34.212 -1.004 3.179 -1.374 5.584 -0.155 8.781 2.017 2.407 3.598 3.916 6.744 4.417 14.578 0.785 29.643 -5.938 43.257 -10.478 9.702 -3.198 21.779 -6.719 31.662 -2.513A81.818 81.818 0 0 1 207.438 170.248l2.025 1.12c4.312 2.463 8.235 5.257 12.099 8.372 2.361 1.873 4.343 3.341 7.364 3.731l1.653 -1.653c-1.136 -1.274 -1.136 -1.274 -2.479 -2.479h-1.653v-1.653c-2.179 -1.982 -2.179 -1.982 -4.959 -2.479l-0.826 -2.479a75.207 75.207 0 0 0 -5.372 -3.667l-1.601 -1.001c-10.6 -6.531 -19.673 -8.17 -32.074 -5.424 -9.403 2.29 -18.617 5.423 -27.825 8.388 -17.39 5.585 -17.39 5.585 -24.864 5.009l-2.479 -1.653c0.124 -5.84 2.822 -8.96 6.612 -13.223l1.417 -1.624C146.271 146.911 162.777 138.865 177.686 130.579c-2.817 -0.939 -3.088 -0.793 -5.633 0.4M229.752 183.471l1.653 3.306h2.479v1.653h1.653l0.826 2.479 2.479 -0.826a365.289 365.289 0 0 0 -3.15 -3.306l-1.773 -1.86c-1.631 -1.715 -1.631 -1.715 -4.168 -1.446m10.744 9.091 0.826 2.479v-2.479zm0.826 3.306v2.479Zm1.653 0 0.826 3.306 1.653 -1.653zm0.826 4.132 1.653 1.653 0.826 -1.653zm3.306 0.826 -1.653 0.826c1.082 2.58 1.082 2.58 3.306 4.132l1.653 -1.653 -0.826 -1.653h-1.653zm3.306 4.132 -0.826 2.479 4.132 4.132c0.276 -1.962 0.276 -1.962 0 -4.132 -1.57 -1.523 -1.57 -1.523 -3.306 -2.479m3.306 6.612 1.653 1.653 0.826 -1.653zm2.479 2.479 0.826 2.479 1.653 -1.653zm1.653 2.479 3.306 4.959 1.653 -1.653h-1.653l-0.826 -3.306zm4.132 4.959c1.542 2.998 1.542 2.998 4.132 4.959v-2.479h-1.653l-0.826 -2.479zm-171.074 -8.264v0.826l2.205 0.245 2.909 0.374 2.876 0.349c3.645 0.906 5.835 2.45 7.955 5.556 1.662 3.563 2.936 7.012 3.89 10.831 2.266 -0.866 4.311 -1.759 6.405 -2.996 4.076 -1.725 7.748 -1.903 11.983 -0.536 2.602 1.176 4.442 2.376 6.405 4.461 1.603 4.612 1.537 9.013 -0.413 13.482L133.884 247.934v2.479c2.466 1.135 2.466 1.135 4.688 -0.178l2.544 -1.424c3.977 -2.089 6.506 -3.136 10.95 -2.531l0.261 1.36c0.702 2.418 1.787 4.438 2.993 6.647l1.314 2.437c1.037 2.043 1.037 2.043 2.87 2.779l-0.826 6.612 2.066 -0.413c7.989 -1.141 7.989 -1.141 12.19 0.879 3.884 3.608 4.509 10.236 5.579 15.237h0.826c0.443 -5.983 -0.662 -11.42 -4.388 -16.289 -1.992 -2.045 -3.589 -3.496 -6.492 -3.626l-2.034 0.03 -2.047 0.022L162.81 261.983l0.826 -1.653c0.46 -4.923 0.431 -9.051 -2.479 -13.223 -3.82 -4.099 -7.628 -5.493 -13.223 -5.785 -2.564 0.322 -4.974 0.879 -7.438 1.653l0.826 -1.653c0.233 -5.455 -0.866 -9.368 -4.41 -13.533 -3.383 -3.304 -7.164 -4.309 -11.751 -4.713 -3.628 0.116 -6.901 1.31 -10.285 2.544l-2.479 0.826 -0.759 -1.692c-2.709 -5.781 -2.709 -5.781 -7.506 -9.879l-1.456 -0.898c-2.421 -0.989 -4.408 -0.916 -7.015 -0.859l-2.699 0.045zm176.033 14.05 0.826 2.479v-2.479zm1.653 2.479 1.653 1.653v-1.653zm1.653 1.653 0.826 1.653Zm5.785 8.264 0.826 1.653Zm-98.347 42.975 0.826 3.306Z" fill="#3F195E"/><path d="M199.174 10.744c39.662 -0.525 39.662 -0.525 53.719 2.479l2.048 0.417C265.973 15.939 276.395 19.62 286.777 23.967l1.849 0.771C303.562 31.083 317.388 39.932 329.752 50.413l2.047 1.724c2.124 1.855 4.174 3.77 6.217 5.714l1.52 1.425C371.069 89.01 389.843 129.086 395.041 171.901l0.24 1.926c5.394 47.664 -10.112 96.917 -39.698 134.319 -4.226 5.231 -8.789 10.136 -13.434 14.995l-1.592 1.694c-4.088 4.245 -8.678 7.868 -13.284 11.529l-2.393 1.963C312.577 348.182 298.74 355.748 284.298 361.983l-1.65 0.716c-21.561 9.16 -44.481 11.838 -67.685 11.762l-4.179 -0.004q-5.442 -0.005 -10.886 -0.02 -5.578 -0.012 -11.154 -0.017 -10.901 -0.013 -21.802 -0.04v-0.826c13.507 -0.648 26.973 -0.945 40.496 -0.826v-1.653h-4.132v-0.826l2.289 -0.31C240.789 364.686 275.215 348.574 301.653 324.793l3.409 -2.893c7.342 -6.509 13.702 -13.397 19.499 -21.298a261.983 261.983 0 0 1 3.306 -4.345C341.607 278.307 349.992 257.69 357.025 236.364l-1.704 0.413c-2.772 0.471 -5.407 0.469 -8.213 0.413 -5 -9.838 -9.732 -19.785 -14.36 -29.803l-1.041 -2.251c-4.643 -10.031 -9.179 -20.094 -13.531 -30.255 -1.906 -4.439 -3.953 -8.804 -6.017 -13.171 -1.63 -3.465 -3.174 -6.967 -4.72 -10.469 -4.779 -10.957 -4.779 -10.957 -10.063 -21.672 -1.032 -2.226 -0.937 -4.015 -0.681 -6.427 1.827 -2.306 4.007 -3.374 6.631 -4.63l2.535 -1.217 2.715 -1.281 2.771 -1.32c8.518 -4.025 17.145 -7.774 25.845 -11.387 -2.43 -4.517 -4.945 -8.862 -7.955 -13.017l-1.061 -1.476C324.289 83.492 320.026 78.518 315.702 73.554l-1.627 -1.937C310.782 67.724 307.205 64.433 303.306 61.157l-2.431 -2.121C291.135 50.57 280.594 43.602 269.421 37.19l-1.49 -0.862C247.411 24.566 222.864 16.017 199.174 14.876v-0.826h4.959v-2.479h-4.959z" fill="#D17818"/><path d="M237.792 124.886c16.699 7.971 34.499 8.322 52.291 4.04 1.973 2.441 3.268 4.833 4.507 7.712l1.14 2.623 1.172 2.732a746.281 746.281 0 0 0 9.752 21.62c2.579 5.504 5.113 11.03 7.655 16.552l0.926 2.01c4.162 9.045 8.255 18.112 12.149 27.277l0.894 2.099 0.752 1.783c0.777 1.755 0.777 1.755 2.376 4.021 -0.017 1.663 -0.017 1.663 -0.826 3.306 -2.025 1.204 -2.025 1.204 -4.7 2.324l-2.958 1.289 -1.548 0.667c-9.86 4.348 -19.207 9.758 -28.413 15.331l-1.917 1.152q-1.856 1.116 -3.7 2.254l-1.708 1.027 -1.508 0.921C282.645 246.281 282.645 246.281 279.339 246.281l-0.723 -1.55c-0.878 -1.866 -0.878 -1.866 -2.583 -3.409l-0.826 -1.653 -2.066 -1.912c-2.507 -2.694 -2.893 -4.431 -2.893 -8.006h-1.653l-3.306 -3.306 0.826 -2.479h-1.653c-1.952 -2.188 -3.2 -3.814 -4.132 -6.612l-2.479 -1.653a58.678 58.678 0 0 1 -2.583 -2.789l-1.298 -1.465c-1.152 -1.635 -1.475 -2.907 -1.905 -4.836a84.298 84.298 0 0 0 -2.479 -2.479v-1.653l-1.911 -0.362c-2.273 -0.475 -4.275 -1.079 -6.354 -2.117l-0.258 -1.55c-0.817 -2.522 -2.466 -2.927 -4.701 -4.236a147.934 147.934 0 0 1 -1.653 -3.306c-1.681 -1.048 -1.681 -1.048 -3.306 -1.653v-2.479h2.479v1.653h1.653l0.826 1.653 0.826 -0.826q-1.159 -1.192 -2.324 -2.376l-1.308 -1.336c-1.436 -1.418 -1.436 -1.418 -3.806 -2.899 -1.807 -1.653 -1.807 -1.653 -3.306 -3.306v-1.653l-1.433 -0.639c-2.074 -1.123 -3.614 -2.455 -5.385 -4.01 -9.509 -7.661 -19.226 -12.021 -31.57 -10.763 -11.714 1.836 -23.014 5.952 -34.269 9.575 -18.003 5.783 -18.003 5.783 -24.864 5.01 -1.937 -1.243 -1.937 -1.243 -3.306 -2.479 0.124 -5.844 2.812 -8.962 6.612 -13.223l1.602 -1.808C147.817 144.518 167.879 134.523 185.95 125.62v-0.826l1.963 -0.31c2.286 -0.344 2.286 -0.344 3.822 -2.169 1.62 -0.587 1.62 -0.587 3.616 -1.136 3.279 -0.922 6.457 -1.991 9.66 -3.151 12.074 -3.958 21.963 1.617 32.781 6.86M240.496 192.562l0.826 2.479v-2.479zm2.479 3.306 0.826 3.306 1.653 -1.653z" fill="#F98200"/><path d="M181.818 113.223c2.415 1.446 4.531 3.066 6.612 4.959l1.443 1.262L190.909 120.661c-0.258 2.221 -0.258 2.221 -0.826 4.132l-2.179 0.701C173.658 130.372 159.772 137.339 147.107 145.455l-1.621 1.038c-8.876 5.787 -19.471 13.114 -22.836 23.598 -0.641 3.46 0.234 5.999 1.317 9.249 14.446 5.455 34.808 -4.852 48.348 -9.367 9.702 -3.198 21.779 -6.719 31.662 -2.513A81.818 81.818 0 0 1 207.438 169.421c0.668 0.369 1.336 0.74 2.025 1.12 4.321 2.469 8.202 5.262 12.018 8.452 1.702 1.202 2.969 1.527 4.965 1.998l0.826 1.653 1.653 0.62 1.653 1.033 0.826 4.959c1.473 0.944 1.473 0.944 3.306 1.653a117.355 117.355 0 0 1 4.132 4.132l1.498 1.343C241.322 197.521 241.322 197.521 241.322 200l1.86 0.62c2.443 1.111 3.733 2.43 5.579 4.339h1.653v2.479l1.653 1.653a185.95 185.95 0 0 1 2.221 2.996c2.207 2.972 4.57 5.738 7.031 8.5 2.122 2.458 4.087 5.026 6.054 7.609 1.231 1.629 1.231 1.629 2.876 3.209l0.672 1.912c0.901 2.402 0.901 2.402 3.15 4.39C276.033 239.669 276.033 239.669 276.033 242.149l1.537 0.636c2.988 1.718 3.945 4.471 5.074 7.628 0.727 4.998 -0.73 8.986 -3.306 13.223 -2.717 3.151 -5.851 4.957 -9.917 5.785 -3.311 0.123 -6.606 0.097 -9.917 0l-0.426 1.663c-1.535 5.592 -3.047 9.502 -8.148 12.645 -4.825 2.284 -10.188 1.658 -15.393 1.395l-0.642 1.482C232.314 291.93 229.562 294.671 223.967 296.694c-3.758 0.893 -6.752 0.975 -10.537 0.155L210.744 296.694c-1.909 2.073 -1.909 2.073 -3.002 3.661 -2.041 2.344 -4.746 3.211 -7.741 3.777 -4.64 0.216 -8.471 -0.313 -13.017 -1.394 -5.362 -1.153 -9.174 -0.911 -14.473 0.745 -6.14 1.76 -12.257 0.921 -17.965 -1.831 -4.343 -2.658 -7.754 -5.807 -10.744 -9.917v-1.653l-1.879 0.145c-6.344 0.279 -11.164 -0.355 -16.303 -4.278 -4.124 -4.422 -5.678 -8.992 -6.612 -14.876l-3.202 -0.207c-6.234 -0.736 -11.474 -2.429 -15.806 -7.128 -3.821 -4.874 -4.34 -8.955 -4.132 -14.979l-1.394 -0.217c-5.946 -1.094 -10.328 -3.241 -14.618 -7.531C75.865 234.566 76.496 227.802 77.686 220.661l-9.091 -3.306c0.433 -4.801 1.831 -8.491 3.9 -12.82l0.936 -2.006c0.998 -2.138 2.007 -4.271 3.016 -6.404q1.56 -3.333 3.116 -6.669 0.982 -2.1 1.969 -4.197c2.787 -5.928 5.471 -11.901 8.142 -17.883 1.84 -4.098 3.719 -8.179 5.598 -12.261l0.965 -2.096q2.427 -5.273 4.86 -10.541l1.797 -3.898 0.847 -1.829c1.065 -2.314 2.066 -4.581 2.872 -7.001 3.309 -0.639 6.517 -0.923 9.884 -1.024 18.245 -0.606 35.544 -6.202 51.996 -13.903 4.574 -2.097 8.474 -3.719 13.326 -1.602m-67.769 24.793 -0.155 1.963L113.223 142.149a64.463 64.463 0 0 1 -4.132 1.653c-3.38 2.935 -5.39 6.076 -7.283 10.073l-0.846 1.736c-2.669 5.535 -5.149 11.154 -7.612 16.782a315.702 315.702 0 0 1 -4.01 8.717C84.314 190.56 84.314 190.56 84.298 200.826h1.653l0.826 2.479c1.541 0.841 1.541 0.841 3.358 1.395l1.836 0.629L93.388 205.785l-2.479 1.653c4.89 1.513 9.844 2.504 14.866 3.487C108.264 211.57 108.264 211.57 109.917 213.223c2.368 1.023 4.834 1.777 7.283 2.583l2.022 0.694c3.312 1.101 6.163 2.012 9.702 1.682v1.653c0.529 0.182 1.059 0.362 1.604 0.549 4.506 1.652 7.857 3.394 11.309 6.747 1.098 1.147 1.098 1.147 2.789 0.969v1.653l1.602 0.259L147.934 230.579l0.826 2.479c1.287 1.192 1.287 1.192 2.841 2.221l1.545 1.094c1.366 0.955 1.366 0.955 3.051 0.817v1.653c1.228 1.124 1.228 1.124 2.789 2.169l1.569 1.117c1.388 0.986 1.388 0.986 3.08 0.845l0.826 2.479h1.653c0.215 0.469 0.43 0.939 0.653 1.423 1.088 2.047 2.351 3.74 3.786 5.56l1.645 2.126a688.43 688.43 0 0 0 3.422 4.359c5.567 7.236 7.238 13.918 8.524 22.788 0.789 4.972 1.855 8.783 5.988 11.988 7.695 3.776 16.293 0.395 23.883 -2.182 4.293 -1.547 8.343 -3.55 12.43 -5.566q2.033 -0.96 4.068 -1.911l4.3 -2.015 2.08 -0.974 1.955 -0.924 1.747 -0.822c1.752 -0.856 1.752 -0.856 4.031 -2.445v-1.653l4.132 -0.826v-1.653l1.963 -0.774c2.106 -0.82 2.106 -0.82 3.822 -1.705v-2.479l2.583 -0.155c3.828 -0.803 5.358 -2.123 8.161 -4.804l2.221 -2.066c3.453 -3.733 4.97 -6.498 4.784 -11.609 -0.771 -3.965 -3.074 -7.027 -5.353 -10.292l-1.501 -2.244c-2.328 -3.423 -4.649 -6.41 -7.59 -9.326l-0.826 -1.653h-1.653l-0.62 -1.807c-1.135 -2.554 -2.458 -4.399 -4.339 -6.457h-1.653l-0.671 -1.446c-1.006 -1.906 -2.059 -3.529 -3.461 -5.165h-1.653l-0.568 -1.394c-1.396 -2.459 -3.124 -4.16 -5.217 -6.044h-1.653v-2.479c-1.911 -2.117 -1.911 -2.117 -4.132 -4.132l-1.394 -1.498c-1.045 -1.167 -1.045 -1.167 -2.738 -0.982v-1.653h-2.479l-0.671 -2.014L223.14 188.43l-2.479 -0.826 -3.306 -3.306a85.124 85.124 0 0 0 -2.893 -2.273l-1.421 -1.072c-1.679 -1.048 -1.679 -1.048 -4.778 -0.788l-0.826 -2.479c-1.998 -1.007 -1.998 -1.007 -4.39 -1.756l-2.418 -0.833c-7.074 -2.221 -13.256 -1.768 -20.413 -0.045l-1.95 0.45c-4.657 1.096 -9.261 2.33 -13.803 3.836v1.653l-1.401 0.064c-4.374 0.31 -8.212 1.121 -12.391 2.466 -8.412 2.514 -17.042 3.051 -25.051 -0.878l-2.066 -0.981L122.314 180.992v-1.653h-1.653l0.826 -4.132h-1.653c-0.357 -8.56 0.848 -14.152 6.612 -20.661a222.314 222.314 0 0 1 5.104 -5.107c1.767 -1.763 3.289 -3.661 4.813 -5.636l1.446 -1.188c1.585 -1.982 1.196 -3.806 1.033 -6.25 -2.841 -1.421 -6.011 -1.014 -9.142 -1.033l-2.058 -0.051c-4.955 -0.031 -9 0.901 -13.593 2.737m-23.14 75.207v0.826l2.205 0.245 2.909 0.374 2.876 0.349c3.645 0.906 5.835 2.45 7.955 5.556 1.662 3.563 2.936 7.012 3.89 10.831 2.266 -0.866 4.311 -1.759 6.405 -2.996 4.076 -1.725 7.748 -1.903 11.983 -0.536 2.602 1.176 4.442 2.376 6.405 4.461 1.603 4.612 1.537 9.013 -0.413 13.482L133.884 247.934v2.479c2.466 1.135 2.466 1.135 4.688 -0.178l2.544 -1.424c3.977 -2.089 6.506 -3.136 10.95 -2.531l0.261 1.36c0.702 2.418 1.787 4.438 2.993 6.647l1.314 2.437c1.037 2.043 1.037 2.043 2.87 2.779l-0.826 6.612 2.066 -0.413c7.989 -1.141 7.989 -1.141 12.19 0.879 3.884 3.608 4.509 10.236 5.579 15.237h0.826c0.443 -5.983 -0.662 -11.42 -4.388 -16.289 -1.992 -2.045 -3.589 -3.496 -6.492 -3.626l-2.034 0.03 -2.047 0.022L162.81 261.983l0.826 -1.653c0.46 -4.923 0.431 -9.051 -2.479 -13.223 -3.82 -4.099 -7.628 -5.493 -13.223 -5.785 -2.564 0.322 -4.974 0.879 -7.438 1.653l0.826 -1.653c0.233 -5.455 -0.866 -9.368 -4.41 -13.533 -3.383 -3.304 -7.164 -4.309 -11.751 -4.713 -3.628 0.116 -6.901 1.31 -10.285 2.544l-2.479 0.826 -0.759 -1.692c-2.709 -5.781 -2.709 -5.781 -7.506 -9.879l-1.456 -0.898c-2.421 -0.989 -4.408 -0.916 -7.015 -0.859l-2.699 0.045zm86.777 69.421 0.826 3.306Z" fill="#44285B"/><path d="M204.132 11.57v2.479l-2.615 0.217C178.871 16.343 157.582 23.145 137.19 33.058l-1.683 0.816C105.784 48.493 78.339 72.698 61.983 101.653l-0.826 2.479 2.158 0.274c2.936 0.579 5.236 1.508 7.94 2.779l2.94 1.372 3.078 1.463 3.139 1.482q3.06 1.446 6.112 2.903a514.05 514.05 0 0 0 6.768 3.15q1.547 0.725 3.093 1.453l2.564 1.188c2.365 1.626 2.79 2.669 3.531 5.423 -0.501 2.229 -0.501 2.229 -1.533 4.698l-1.196 2.876q-0.697 1.587 -1.403 3.17l-0.748 1.678a807.438 807.438 0 0 1 -5.165 11.206c-1.664 3.555 -3.316 7.116 -4.967 10.677l-1.019 2.198c-3.329 7.202 -6.543 14.451 -9.744 21.711a1381.818 1381.818 0 0 1 -13.119 28.874l-0.757 1.617A1208.264 1208.264 0 0 1 57.851 224.793l-0.77 1.618q-1.155 2.413 -2.326 4.819l-1.383 2.865C52.066 236.364 52.066 236.364 49.587 238.017c-2.445 -0.25 -4.408 -0.551 -6.612 -1.653 4.761 23.113 16.029 44.531 30.363 63.111 0.917 1.19 1.818 2.39 2.717 3.593 13.223 17.02 29.858 30.097 47.912 41.561l1.483 0.945c20.155 12.661 48.103 23.573 72.061 24.936l1.768 0.105 1.806 0.099 1.855 0.107q2.248 0.131 4.498 0.254v1.653c-49.012 2.715 -49.012 2.715 -68.595 -2.479l-2.122 -0.55C112.398 363.252 89.534 351.739 70.248 335.537l-2.544 -2.083C57.361 324.934 48.46 315.74 40.496 304.959l-1.24 -1.67C33.21 295.095 27.84 286.718 23.14 277.686l-0.825 -1.544C12.701 257.963 7.187 237.588 4.132 217.355l-0.322 -2.036C-0.902 184.606 4.194 151.859 15.702 123.14l0.702 -1.759C22.85 105.525 31.457 91.03 42.149 77.686l2.073 -2.631C47.707 70.701 51.349 66.666 55.372 62.81l1.931 -1.937C68.732 49.476 80.99 40.169 95.041 32.231l1.605 -0.922C129.937 12.298 166.483 7.791 204.132 11.57M82.335 50.052l-2.224 1.477C78.195 52.802 76.287 54.085 74.38 55.372l-2.479 1.653v1.653l-4.959 2.479v1.653l-1.394 0.569C63.097 64.769 61.443 66.559 59.504 68.595l-1.55 1.498c-2.101 2.162 -4.075 4.415 -6.046 6.695a216.529 216.529 0 0 1 -2.912 3.293c-2.413 2.702 -3.95 4.904 -5.194 8.349 -1.136 1.24 -1.136 1.24 -2.479 2.479 -3.198 3.669 -5.57 7.741 -8.006 11.932l-1.248 2.087c-2.091 3.588 -3.674 6.54 -3.969 10.774h-1.653v3.306h-1.653c-15.662 37.534 -20.514 80.393 -9.091 119.835l0.83 3.083C18.107 247.693 19.965 253.185 22.314 258.678l1.02 2.557C26.742 269.582 31.055 277.316 35.537 285.124l1.905 3.335L38.843 290.909h1.653l0.723 1.912C42.118 295.165 42.118 295.165 43.802 297.521h1.653l0.571 1.75c1.307 2.879 3.108 5.081 5.162 7.445l1.215 1.414C58.298 314.909 64.643 321.943 71.901 327.273h1.653v1.653l2.738 1.498c1.628 0.891 2.921 1.68 4.229 3.005 2.711 2.678 6.276 4.355 9.562 6.24l2.635 1.55c2.821 1.128 5.098 1.111 8.109 0.93 -0.645 -2.063 -0.645 -2.063 -1.653 -4.132l-2.479 -0.826a71.901 71.901 0 0 1 -1.653 -3.306c-1.19 -1.402 -1.19 -1.402 -2.576 -2.708l-1.521 -1.493 -1.585 -1.531c-5.508 -5.355 -5.508 -5.355 -7.806 -8.268L80.165 318.182h-1.653l-0.155 -1.394c-0.945 -2.691 -2.779 -4.066 -4.804 -6.044a327.273 327.273 0 0 1 -2.479 -4.132c-0.507 -0.5 -1.014 -1 -1.537 -1.514 -1.864 -1.888 -3.313 -3.843 -4.817 -6.027l-1.507 -2.176C61.983 295.041 61.983 295.041 61.157 293.388h-1.653l-0.826 -4.132h-1.653v-2.479h-1.653l-0.278 -1.846c-0.574 -2.39 -1.355 -3.773 -2.718 -5.798 -3.374 -5.407 -5.593 -11.248 -7.909 -17.16 -0.635 -1.566 -1.335 -3.104 -2.037 -4.64 -2.826 -7.112 -2.079 -15.165 -1.107 -22.621l2.479 -0.826c1.193 -1.636 1.193 -1.636 2.273 -3.667 2.187 -3.807 4.576 -7.379 7.138 -10.941 2.886 -4.031 2.886 -4.031 4.071 -8.739 0.688 -3.752 2.248 -5.913 4.471 -8.952 1.208 -1.497 1.208 -1.497 1.055 -3.238l1.653 -0.826a80.992 80.992 0 0 0 2.221 -4.649l1.32 -2.938 0.698 -1.562c1.209 -2.68 2.465 -5.339 3.716 -8 1.81 -3.868 3.589 -7.746 5.311 -11.655a698.347 698.347 0 0 1 6.408 -14.055l0.78 -1.666q0.759 -1.617 1.521 -3.231c3.195 -6.803 5.192 -12.398 2.932 -19.902 -2.084 -5.23 -3.093 -7.655 -8.378 -10.027h-1.653v-1.653l-2.083 -0.998 -2.721 -1.327 -2.702 -1.307c-2.079 -1.143 -3.291 -2.124 -4.891 -3.806h-1.653l-0.826 -2.479h-1.653l0.826 -3.306h-4.132c-1.033 -4.324 -1.233 -7.331 1.033 -11.26l1.185 -1.869c1.233 -1.856 1.233 -1.856 2.173 -4.587 1.721 -3.634 4.053 -6.392 6.646 -9.443C72.069 76.186 72.069 76.186 71.901 74.38l2.479 -0.826c1.364 -1.283 1.364 -1.283 2.686 -2.893l1.531 -1.795c1.565 -1.92 3.068 -3.876 4.564 -5.85 2.071 -2.717 4.188 -4.747 6.921 -6.818v-1.653l1.407 -0.536c2.556 -1.504 3.99 -3.446 5.824 -5.766l2.002 -2.512L100.826 43.802l-0.826 -1.653c-6.601 0 -12.44 4.364 -17.665 7.903" fill="#472C5E"/><path d="M333.884 72.727c3.752 1.116 4.736 2.44 6.612 5.785 1.091 0.841 2.19 1.671 3.306 2.479v1.653l3.306 0.826 0.826 3.306h2.479v1.653l1.498 0.569c2.312 1.388 2.948 2.884 4.287 5.217q1.391 2.145 2.789 4.288c2.371 3.691 4.372 7.426 6.185 11.418 0.926 1.905 0.926 1.905 3.422 3.302 1.622 2.91 2.818 6.031 4.132 9.091l1.311 2.767c2.744 5.935 4.312 11.25 4.952 17.765 0.251 2.579 0.251 2.579 1.133 4.791 1.319 4.215 1.669 8.521 2.16 12.9q0.308 2.693 0.623 5.385l0.27 2.396c0.196 1.943 0.196 1.943 1.121 3.583 0.102 2.458 0.156 4.895 0.168 7.354l0.014 2.264q0.012 2.391 0.017 4.782c0.008 2.378 0.033 4.755 0.06 7.132 0.079 13.466 -1.436 26.455 -4.752 39.521l-0.531 2.17a342.149 342.149 0 0 1 -4.201 15.311c-0.64 2.274 -1.126 4.529 -1.569 6.848L372.727 260.331l-2.479 0.826c-1.05 2.162 -1.696 4.293 -2.324 6.612 -1.178 2.975 -2.84 4.393 -5.114 6.612 -1.482 2.617 -1.482 2.617 -2.479 4.959h-1.653l-0.62 2.531c-0.974 3.392 -2.393 6.091 -4.339 9.039l-2.479 0.826c-1.007 2.069 -1.007 2.069 -1.653 4.132h-1.653l-0.155 1.395c-0.96 2.73 -2.657 4.157 -4.804 6.043h-1.653l-0.826 3.306h-0.826c0.142 -5.709 1.405 -8.838 4.959 -13.223l1.395 -2.324C347.107 289.256 347.107 289.256 348.76 287.603c0.883 -1.942 1.583 -3.896 2.192 -5.94 1.193 -3.922 2.21 -6.096 5.246 -8.936 1.427 -3.676 2.204 -7.394 2.945 -11.26 1.141 -5.928 1.141 -5.928 1.655 -7.787 1.572 -7.078 0.865 -13.633 -2.869 -19.806C357.025 232.231 357.025 232.231 357.025 229.752h-1.653l-0.723 -1.601c-0.788 -1.831 -0.788 -1.831 -2.583 -2.531v-1.653h-1.653l-0.671 -1.911c-0.806 -2.192 -0.806 -2.192 -2.169 -3.39 -1.438 -1.459 -2.204 -2.833 -3.099 -4.669l-0.862 -1.733C342.975 210.744 342.975 210.744 342.975 209.091l-1.527 -0.087C339.669 208.264 339.669 208.264 338.588 206.002l-0.934 -2.955a885.124 885.124 0 0 0 -1.062 -3.193l-0.533 -1.62c-3.086 -9.102 -7.46 -18.068 -12.351 -26.334 -1.382 -2.458 -2.174 -4.765 -3.047 -7.438a130.579 130.579 0 0 0 -1.601 -3.202c-1.426 -2.766 -2.545 -5.549 -3.587 -8.478 -0.636 -1.739 -0.636 -1.739 -1.94 -4.022 -1.385 -3.022 -1.766 -5.817 -1.963 -9.091l-0.161 -2.085c-0.215 -4.773 0.304 -7.343 3.467 -11.138l1.098 -1.682c1.679 -1.974 3.031 -2.483 5.463 -3.329 2.928 -1.029 5.054 -2.161 7.489 -4.08l2.841 -1.55c5.107 -2.898 7.546 -6.281 9.555 -11.674h1.653c-0.178 -5.823 -0.355 -10.792 -3.319 -15.893 -1.647 -2.963 -2.331 -6.24 -2.776 -9.572 -0.345 -1.964 -0.345 -1.964 -2.221 -2.893L333.058 75.207z" fill="#F98200"/><path d="M100.826 42.975c-2.611 4.177 -5.546 8.131 -9.091 11.57h-1.653l-0.517 1.395c-1.289 2.169 -2.898 3.386 -4.855 4.939 -1.934 1.721 -3.133 3.902 -4.545 6.063 -2.106 2.569 -4.231 5.119 -6.612 7.438h-1.653l-0.623 1.818c-1.124 2.526 -2.476 4.207 -4.283 6.291 -2.951 3.58 -4.425 6.514 -5.837 10.899l-1.446 2.015C58.141 98.62 58.883 101.521 59.504 104.959h4.132l-0.826 3.306 2.479 0.826v1.653l1.343 0.62C68.595 112.397 68.595 112.397 70.92 113.998 73.682 115.785 76.293 116.964 79.339 118.182v1.653c2.192 0.888 4.367 1.731 6.612 2.479 3.804 5.706 5.245 12.22 4.132 19.008 -1.367 3.737 -3.136 7.212 -4.959 10.744a395.868 395.868 0 0 0 -2.169 4.752l-1.02 2.247a712.397 712.397 0 0 0 -2.493 5.604c-1.435 3.241 -2.935 6.451 -4.442 9.66a821.488 821.488 0 0 0 -6.715 14.721l-0.866 1.94 -0.806 1.818 -0.715 1.61C65.359 195.703 64.904 197.025 64.463 198.347h-1.653l-0.568 1.653c-1.184 2.707 -2.686 4.969 -4.372 7.387 -1.003 1.675 -1.003 1.675 -0.755 3.628 -0.13 3.175 -1.755 5.248 -3.499 7.787l-1.024 1.537A650.413 650.413 0 0 1 49.587 224.793l-2.84 4.288L44.628 232.231l-1.653 2.479h-1.653c-1.113 10.868 -1.113 10.868 0.826 21.488l0.617 1.998c2.719 8.182 6.751 16.055 11.16 23.454C55.372 284.298 55.372 284.298 55.372 286.777h1.653v2.479h1.653l0.826 4.132h1.653c1.13 1.453 1.13 1.453 2.376 3.409l1.326 2.053L66.116 300.826c2.033 3.248 2.033 3.248 4.51 6.153 1.708 1.721 2.983 3.654 4.349 5.65 1.036 1.469 1.036 1.469 2.427 2.738C78.512 316.529 78.512 316.529 78.512 318.182l1.436 0.591c2.289 1.3 3.616 2.837 5.331 4.833 3.196 3.658 6.541 7.075 10.05 10.434C96.694 335.537 96.694 335.537 96.694 337.19l2.479 0.826c0.982 2.118 0.982 2.118 1.653 4.132 -4.621 0.31 -7.264 -0.435 -11.26 -2.737l-2.719 -1.54L84.298 336.364l-2.344 -1.326C80.165 333.884 80.165 333.884 79.339 332.231c-1.364 -0.922 -1.364 -0.922 -2.944 -1.756L73.554 328.926v-1.653l-1.483 -0.68c-1.791 -0.955 -3.056 -1.94 -4.537 -3.317l-1.523 -1.412 -1.598 -1.512 -1.656 -1.558C56.446 312.797 50.017 306.641 45.455 299.174v-1.653h-1.653c-3.306 -4.473 -3.306 -4.473 -3.306 -6.612h-1.653c-4.909 -8.712 -9.71 -17.433 -14.05 -26.446l-1.155 -2.357c-2.317 -4.873 -4.022 -9.779 -5.537 -14.956a115.702 115.702 0 0 0 -2.037 -6.188C3.292 202.366 8.432 155.771 24.793 119.008h1.653v-3.306h1.653l0.545 -2.799c1.105 -4.411 3.281 -8.047 5.602 -11.921l1.228 -2.117c2.064 -3.506 3.946 -6.372 7.088 -8.989 1.446 -1.533 1.446 -1.533 2.376 -4.236C46.369 82.449 47.872 80.868 50.413 78.512a433.058 433.058 0 0 0 3.306 -4.132l1.188 -1.185c1.314 -1.317 2.483 -2.699 3.667 -4.136C60.619 66.66 62.684 64.62 65.289 62.81h1.653v-1.653c2.861 -2.479 2.861 -2.479 4.959 -2.479v-1.653a100 100 0 0 1 5.579 -3.874l1.696 -1.111C95.738 41.279 95.738 41.279 100.826 42.975m-52.066 52.893c-3.65 1.845 -5.36 3.906 -7.541 7.335l-1.66 2.576L38.017 108.264l-1.331 2.121c-1.157 2.025 -2.054 4.026 -2.905 6.195l-0.833 2.096A43.802 43.802 0 0 0 31.405 123.967h-1.653l-0.826 6.612h-1.653v4.132h-1.653c-2.653 10.008 -5.145 20.022 -6.973 30.217l-0.44 2.364c-0.736 4.288 -0.921 7.78 -0.025 12.047h-1.653v25.62h1.653l-0.523 2.192c-0.703 4.988 0.541 9.907 1.453 14.802l0.574 3.134C22.145 238.259 22.145 238.259 28.926 249.587l2.479 -0.826 0.339 -2.364C33.521 235.802 38.052 228.271 44.628 219.835c2.593 -3.508 4.107 -6.912 5.64 -10.95 0.926 -2.167 1.987 -4.013 3.255 -5.995 3.017 -4.942 5.29 -10.133 7.583 -15.441q1.302 -2.975 2.608 -5.95l1.252 -2.861a421.488 421.488 0 0 1 4.404 -9.629c2.264 -4.802 4.475 -9.626 6.663 -14.463l2.118 -4.649 1.02 -2.266a162.81 162.81 0 0 1 1.988 -4.197c1.872 -3.888 2.831 -6.788 2.312 -11.202 -0.727 -1.945 -0.727 -1.945 -1.653 -3.306h-1.653l-0.826 -2.479c-1.674 -1.162 -1.674 -1.162 -3.76 -2.173l-2.32 -1.196 -2.443 -1.229 -2.413 -1.238c-4.113 -2.112 -4.113 -2.112 -8.276 -4.124 -1.954 -1.058 -2.221 -2.055 -3.102 -4.09l-1.601 -2.531c-1.925 -3.279 -2.697 -6.711 -3.516 -10.399 -0.545 -2.226 -0.545 -2.226 -3.148 -3.599" fill="#371552"/><path d="M237.792 124.886c16.699 7.971 34.499 8.322 52.291 4.04 1.973 2.441 3.268 4.833 4.507 7.712l1.14 2.623 1.172 2.732a746.281 746.281 0 0 0 9.752 21.62c2.579 5.504 5.113 11.03 7.655 16.552l0.926 2.01c4.162 9.045 8.255 18.112 12.149 27.277l0.894 2.099 0.752 1.783c0.777 1.755 0.777 1.755 2.376 4.021 -0.017 1.663 -0.017 1.663 -0.826 3.306 -2.025 1.204 -2.025 1.204 -4.7 2.324l-2.958 1.289 -1.548 0.667c-9.86 4.348 -19.207 9.758 -28.413 15.331l-1.917 1.152q-1.856 1.116 -3.7 2.254l-1.708 1.027 -1.508 0.921C282.645 246.281 282.645 246.281 279.339 246.281l-0.723 -1.55c-0.878 -1.866 -0.878 -1.866 -2.583 -3.409l-0.826 -1.653 -2.066 -1.912c-2.507 -2.694 -2.893 -4.431 -2.893 -8.006h-1.653l-3.306 -3.306 0.826 -2.479h-1.653c-1.952 -2.188 -3.2 -3.814 -4.132 -6.612l-2.479 -1.653a58.678 58.678 0 0 1 -2.583 -2.789l-1.298 -1.465c-1.152 -1.635 -1.475 -2.907 -1.905 -4.836a84.298 84.298 0 0 0 -2.479 -2.479v-1.653l-1.911 -0.362c-2.273 -0.475 -4.275 -1.079 -6.354 -2.117l-0.258 -1.55c-0.817 -2.522 -2.466 -2.927 -4.701 -4.236a147.934 147.934 0 0 1 -1.653 -3.306c-1.681 -1.048 -1.681 -1.048 -3.306 -1.653v-2.479h2.479v1.653h1.653l0.826 1.653 0.826 -0.826q-1.159 -1.192 -2.324 -2.376l-1.308 -1.336c-1.436 -1.418 -1.436 -1.418 -3.806 -2.899 -1.807 -1.653 -1.807 -1.653 -3.306 -3.306v-1.653l-1.433 -0.639c-2.074 -1.123 -3.614 -2.455 -5.385 -4.01 -9.509 -7.661 -19.226 -12.021 -31.57 -10.763 -11.714 1.836 -23.014 5.952 -34.269 9.575 -18.003 5.783 -18.003 5.783 -24.864 5.01 -1.937 -1.243 -1.937 -1.243 -3.306 -2.479 0.124 -5.844 2.812 -8.962 6.612 -13.223l1.602 -1.808C147.817 144.518 167.879 134.523 185.95 125.62v-0.826l1.963 -0.31c2.286 -0.344 2.286 -0.344 3.822 -2.169 1.62 -0.587 1.62 -0.587 3.616 -1.136 3.279 -0.922 6.457 -1.991 9.66 -3.151 12.074 -3.958 21.963 1.617 32.781 6.86m-46.263 6.564c-1.55 0.837 -2.996 1.278 -4.7 1.711L184.298 133.884l-0.826 1.653 -4.132 1.653 -2.376 1.601c-2.212 1.461 -4.287 2.438 -6.725 3.438 -5.864 2.662 -10.45 6.037 -14.866 10.664l-1.86 0.878c-1.654 0.711 -1.654 0.711 -2.479 2.789 -0.736 2.147 -0.736 2.147 -0.62 4.598 2.02 1.304 2.945 1.715 5.355 1.301l2.238 -0.733c3.607 -1.101 6.932 -1.737 10.692 -1.965 1.821 -0.19 1.821 -0.19 4.029 -1.908 2.047 -0.388 4.03 -0.694 6.095 -0.93l1.764 -0.212c5.373 -0.601 10.704 -0.678 16.107 -0.511v2.479l-2.479 1.653 8.264 0.826 1.653 -3.306c3.58 1.074 6.717 2.501 9.975 4.293 1.816 0.878 1.816 0.878 4.901 0.665l0.826 2.479a90.909 90.909 0 0 0 4.752 3.616c3.41 2.444 6.372 4.951 9.298 7.955a227.273 227.273 0 0 0 3.358 2.84c2.793 2.409 4.701 4.727 6.56 7.903l-2.479 2.479 1.395 0.568c2.902 1.648 5.366 3.863 6.869 6.87l5.785 -0.826 0.569 1.963c1.369 2.738 2.44 2.781 5.217 3.822 0.826 1.446 0.826 1.446 1.653 3.306 2.312 2.92 4.661 5.775 7.438 8.264h1.653l0.826 3.306h1.653l0.672 1.807c1 2.37 1.914 4.396 3.46 6.457 2.141 0.733 2.141 0.733 4.132 0.826v1.653c6.283 1.23 10.922 0.731 16.529 -2.479a116.529 116.529 0 0 0 4.132 -4.132 209.091 209.091 0 0 1 4.959 -1.653c1.964 -1.55 1.964 -1.55 3.306 -3.306v-1.653l2.479 -0.826c1.649 -3.645 2.116 -6.782 1.653 -10.744 -0.888 -2.131 -1.917 -4.136 -3.008 -6.169a78.512 78.512 0 0 1 -2.777 -5.763c-1.884 -4.307 -3.835 -8.583 -5.785 -12.861h-1.653l-0.31 -2.686c-0.431 -2.589 -0.757 -4.245 -2.169 -6.405l-1.653 -0.826c-0.884 -1.707 -0.884 -1.707 -1.756 -3.771l-0.884 -2.069L295.041 161.157h-0.826l-0.513 -1.569 -0.674 -2.047 -0.669 -2.033c-0.583 -1.798 -0.583 -1.798 -1.449 -3.442h-1.653l-0.826 -2.479h-1.653l-0.155 -1.498c-0.964 -2.595 -2.348 -3.115 -4.804 -4.287 -2.975 -0.767 -5.883 -0.95 -8.947 -1.066A207.438 207.438 0 0 1 253.719 141.116l-2.169 -0.243c-1.856 -0.264 -3.52 -0.526 -5.269 -1.203a68.595 68.595 0 0 1 -1.653 -4.132c-2.269 -1.092 -4.283 -1.893 -6.663 -2.635l-1.932 -0.64A107.438 107.438 0 0 0 223.14 128.926l-2.789 -0.93c-9.015 -2.176 -20.764 -1.235 -28.822 3.455M240.496 192.562l0.826 2.479v-2.479zm2.479 3.306 0.826 3.306 1.653 -1.653z" fill="#D77000"/><path d="M293.388 32.231h1.653v1.653h1.653v2.479l5.785 0.826 -0.826 -2.479h4.132c1.207 2.188 1.653 3.218 1.653 5.785h1.653l0.826 1.653 2.479 0.826 0.826 4.132 3.306 -0.826v1.653l1.653 0.826 -2.479 0.826 0.826 2.479c1.535 0.504 1.535 0.504 3.306 0.826l1.602 0.826c1.715 0.93 1.715 0.93 3.822 1.188 2.321 0.536 2.917 1.23 4.493 2.944 1.736 0.972 1.736 0.972 3.306 1.653l0.826 -2.479 0.31 1.602L334.711 60.331l1.653 0.826v2.479a233.884 233.884 0 0 0 4.132 4.132l0.826 2.479h1.653l0.178 1.362c0.909 2.723 2.554 4.426 4.42 6.593C351.24 82.47 351.24 82.47 351.24 84.298l2.479 0.826c1.186 1.628 2.245 3.251 3.306 4.959q1.304 1.979 2.615 3.955l2.86 4.362 1.465 2.216 1.408 2.152 1.274 1.937c1.929 3.281 2.774 5.498 2.774 9.345h1.653c2.552 4.74 4.623 9.306 5.973 14.527 0.608 2.104 0.608 2.104 1.846 4.303 1.485 3.103 2.208 6.076 2.925 9.424q0.384 1.748 0.775 3.496l0.408 1.833c0.518 2.155 1.118 4.278 1.726 6.409 7.065 25.689 5.653 56.791 -1.256 82.321h-1.653l-0.152 1.931 -0.209 2.512 -0.204 2.498C380.992 245.455 380.992 245.455 380.165 247.107h-1.653v8.264h-2.479l-0.155 2.325c-0.614 4.519 -2.818 8.498 -4.804 12.551h-1.653c-0.512 2.417 -0.876 4.711 -1.084 7.18 -0.569 2.737 -0.569 2.737 -2.273 3.926 -0.529 0.153 -1.058 0.306 -1.602 0.464h2.479l1.653 0.826v4.132l-1.653 -2.479 -4.132 0.826 -0.826 2.479a95.868 95.868 0 0 1 -2.479 2.479c-1.091 1.512 -2.122 3.055 -3.154 4.607L355.372 295.868h-1.653l-0.517 1.653c-2.471 5.392 -6.782 10.759 -11.054 14.876h-1.653l-0.207 1.86c-0.742 2.721 -1.764 3.81 -3.926 5.579h-1.653l-0.826 2.479h-1.653l-1.653 2.479h-2.479l-0.826 3.306h-4.132l-0.62 1.55c-1.203 2.046 -2.172 2.542 -4.339 3.409v1.653l-5.785 0.826v2.479l1.653 0.826h-2.479l-0.826 -1.653 -1.653 0.826 0.826 -2.479h1.653l-0.826 -4.959 -4.959 3.306 -0.826 -1.653 0.826 -2.479h1.653l0.62 -1.55c1.641 -2.789 3.838 -3.242 6.818 -4.236l0.62 -2.84L316.529 318.182c2.996 -1.188 2.996 -1.188 5.785 -1.653 -1.262 2.84 -2.975 5.058 -4.959 7.438a303.306 303.306 0 0 0 2.841 -2.324l1.598 -1.308c1.557 -1.333 1.557 -1.333 2.173 -3.806l2.479 -2.479 1.292 -2.221L328.926 309.917h1.653l0.826 -4.132h1.653l0.672 -1.446c1.005 -1.906 2.058 -3.529 3.46 -5.165h1.653l0.826 -5.785h1.653l0.31 -1.601L342.149 290.083l1.653 -0.826 0.826 -2.479h-1.653c0.444 -2.791 0.917 -5.535 1.653 -8.264v1.653h1.653l-0.517 -2.169c-0.35 -3.153 0.063 -4.868 1.343 -7.748l1.292 -1.24c1.76 -1.837 1.74 -3.736 2.014 -6.198h2.479l0.826 -2.479 1.653 -0.826v-1.653l-1.653 -0.826c0.35 -1.226 0.714 -2.448 1.085 -3.667l0.61 -2.064L356.198 249.587l2.479 -0.826 -0.826 -4.132h-1.653l0.826 -8.264 -1.704 0.413c-2.772 0.471 -5.407 0.44 -8.213 0.413 -5 -9.838 -9.732 -19.785 -14.36 -29.803l-1.041 -2.251c-4.643 -10.031 -9.179 -20.094 -13.531 -30.255 -1.906 -4.439 -3.953 -8.804 -6.017 -13.171 -1.63 -3.465 -3.174 -6.967 -4.72 -10.469 -4.779 -10.957 -4.779 -10.957 -10.063 -21.672 -1.032 -2.226 -0.937 -4.015 -0.681 -6.427 1.827 -2.306 4.007 -3.374 6.631 -4.63l2.535 -1.217 2.715 -1.281 2.771 -1.32c8.518 -4.025 17.145 -7.774 25.845 -11.387 -2.43 -4.517 -4.945 -8.862 -7.955 -13.017l-1.061 -1.476C324.291 83.493 320.033 78.512 315.702 73.554l-1.656 -1.908a746.281 746.281 0 0 0 -2.786 -3.179c-1.953 -2.217 -3.888 -4.449 -5.824 -6.679 -1.281 -1.475 -1.281 -1.475 -2.725 -2.78L301.653 57.851c0.233 -1.921 0.788 -3.231 1.653 -4.959h-1.653l-0.826 -1.653c-1.674 -0.539 -1.674 -0.539 -3.306 -0.826 -0.517 -1.911 -0.517 -1.911 -0.826 -4.132l1.653 -2.479 -4.132 2.479 -0.826 -2.479h2.479v-1.653h-2.479v-1.653h-4.132v-4.132h4.132zm40.496 40.496 -0.826 2.479 1.575 0.536C336.364 76.86 336.364 76.86 337.112 78.959l0.491 2.55c0.681 3.155 1.345 5.75 2.996 8.523 2.41 4.331 2.228 9.252 2.376 14.101h-1.653l-0.701 1.663c-3.296 7.26 -7.091 9.888 -14.175 13.213q-1.707 0.848 -3.409 1.705c-1.642 0.821 -3.279 1.636 -4.945 2.405 -3.207 1.742 -5.128 4.997 -6.521 8.287 -1.008 8.325 0.785 16.448 4.778 23.727 1.045 1.964 1.84 3.96 2.66 6.025l1.24 1.963c1.468 2.568 2.082 5.117 2.893 7.955 0.793 1.397 1.625 2.772 2.479 4.132 2.699 5.044 5.003 10.215 7.164 15.509 0.794 1.929 1.603 3.846 2.434 5.759l0.682 1.57q0.96 2.205 1.924 4.409c0.797 1.957 1.421 3.75 1.846 5.811l1.55 0.155c1.756 0.671 1.756 0.671 2.635 2.427L344.628 213.223c1.26 3.956 1.26 3.956 4.132 6.612a64.463 64.463 0 0 1 1.653 4.132h1.653v1.653q1.215 1.264 2.479 2.479l0.826 1.653h1.653l0.307 1.453c0.53 1.888 1.291 3.336 2.225 5.055 3.399 7.555 1.916 15.865 -0.284 23.567 -0.686 2.279 -0.686 2.279 -0.955 5.203 -0.621 3.66 -1.936 6.948 -3.771 10.176l-1.653 0.826c-0.664 1.58 -0.664 1.58 -1.188 3.461 -2.411 7.619 -2.411 7.619 -4.985 10.111 -1.382 1.424 -2.081 2.714 -2.918 4.507 -0.945 1.993 -1.869 3.734 -3.099 5.579 -1.28 2.432 -1.222 4.212 -1.033 6.921l1.653 -0.826v-2.479h1.653c1.307 -1.226 1.307 -1.226 2.583 -2.789l1.35 -1.569c1.188 -1.358 1.188 -1.358 1.026 -3.08l2.479 -0.826 0.413 -1.653 0.413 -1.653 2.479 -0.826c2.876 -3.483 4.618 -7.026 4.959 -11.57l2.479 -0.826a331.405 331.405 0 0 0 2.479 -4.959l1.602 -1.498C367.843 269.292 370.248 265.049 370.248 261.157l2.479 -0.826c0.602 -1.522 0.602 -1.522 0.865 -3.367a92.562 92.562 0 0 1 2.15 -8.84c2.149 -7.309 3.851 -14.697 5.455 -22.143l0.646 -2.977 0.607 -2.863 0.536 -2.533c1.099 -6.217 1.434 -12.306 1.42 -18.612l0.002 -2.347q0 -2.432 -0.005 -4.865c-0.004 -2.489 0 -4.979 0.006 -7.469q0 -2.37 -0.003 -4.74l0.005 -2.259 -0.008 -2.083 -0.002 -1.835c-0.015 -1.581 -0.015 -1.581 -0.931 -3.15a166.116 166.116 0 0 1 -0.745 -5.23l-0.421 -3.193q-0.326 -2.51 -0.647 -5.021 -0.313 -2.428 -0.636 -4.855l-0.378 -2.931c-0.471 -2.696 -1.226 -5.119 -2.131 -7.696 -0.226 -1.85 -0.226 -1.85 -0.31 -3.564 -0.336 -3.522 -1.377 -6.223 -2.909 -9.392 -0.96 -2.021 -1.766 -4.066 -2.566 -6.156 -2.35 -5.979 -2.35 -5.979 -6.208 -11.031 -1.676 -1.72 -2.488 -3.763 -3.519 -5.907 -1.992 -3.851 -4.411 -7.444 -6.802 -11.057l-1.233 -1.866c-0.917 -1.341 -1.901 -2.636 -2.899 -3.919h-1.653v-1.653h-2.479l-0.826 -3.306 -1.601 -0.258L343.802 82.645l-0.826 -2.479 -2.066 -1.653c-2.066 -1.653 -2.066 -1.653 -2.893 -4.132 -2.069 -1.007 -2.069 -1.007 -4.132 -1.653" fill="#D97100"/><path d="M91.303 213.207c6.619 0.436 10.601 1.264 15.515 5.905 2.182 3.583 3.926 8.039 3.926 12.293l1.36 -0.875 1.791 -1.139 1.773 -1.134c3.747 -2.185 7.387 -2.296 11.606 -1.811 3.637 1.117 6.058 2.724 8.678 5.475 1.99 4.478 2.084 8.59 0.491 13.24A71.901 71.901 0 0 1 133.884 250.413c3.123 -0.483 5.413 -1.403 8.161 -2.944 3.63 -1.892 5.974 -2.455 10.021 -2.015l0.569 1.602c1.248 2.913 2.779 5.587 4.371 8.326C157.851 257.025 157.851 257.025 157.851 258.678l2.479 0.826 -1.653 6.612 2.066 -0.826c4.561 -1.303 8.437 -1.763 12.655 0.569 4.087 3.191 4.37 8.649 5.113 13.481v-7.438c2.342 3.512 1.994 6.621 1.653 10.744 -0.826 2.583 -0.826 2.583 -1.653 4.132h-1.653l-0.361 2.686c-0.331 2.204 -0.693 4.268 -1.292 6.405h1.653c2.178 1.742 2.726 3.112 3.306 5.785 -8.899 2.569 -16.975 4.166 -25.62 0 -4.343 -2.658 -7.754 -5.807 -10.744 -9.917v-1.653l-1.879 0.145c-6.344 0.279 -11.164 -0.355 -16.303 -4.278 -4.124 -4.422 -5.678 -8.992 -6.612 -14.876l-3.202 -0.207c-6.234 -0.736 -11.474 -2.429 -15.806 -7.128 -3.821 -4.874 -4.34 -8.955 -4.132 -14.979l-1.394 -0.217c-5.946 -1.094 -10.328 -3.241 -14.618 -7.531C76.988 236.38 76.555 231.783 76.86 226.446l0.045 -1.802c0.109 -1.762 0.109 -1.762 0.781 -4.81 1.912 -1.55 1.912 -1.55 4.132 -2.479l1.756 -0.981C85.124 215.702 85.124 215.702 87.603 215.702l0.826 -1.653c0.826 -0.826 0.826 -0.826 2.874 -0.843" fill="#E57800"/><path d="m129.701 135.331 2.126 0.013c5.107 0.064 5.107 0.064 7.017 1.02 0.155 2.325 0.155 2.325 0 4.959 -1.084 1.214 -1.084 1.214 -2.479 2.479a322.314 322.314 0 0 0 -2.634 3.048c-2.103 2.432 -4.291 4.696 -6.612 6.921C120.568 160.333 119.835 166.021 119.835 175.207h1.653l-0.826 4.132h1.653v1.653c1.083 0.587 2.193 1.124 3.306 1.653l2.738 1.343c8.693 3.106 17.568 1.167 26.05 -1.526 3.478 -1.098 6.355 -1.704 10.055 -1.47v-1.653c16.199 -4.975 27.901 -7.931 43.802 -0.826v1.653l1.821 0.261c2.522 0.617 4.105 1.53 6.237 2.993l1.95 1.314C219.835 185.95 219.835 185.95 220.661 187.603l2.479 0.826c0.982 2.118 0.982 2.118 1.653 4.132h2.479v1.653l1.446 0.569c2.326 1.356 3.535 3.098 5.165 5.217l1.653 0.826v2.479l1.395 0.569c2.458 1.395 4.159 3.123 6.043 5.217v1.653h1.653c4.132 4.526 4.132 4.526 4.132 6.612h1.653c1.246 1.388 1.246 1.388 2.583 3.202l1.35 1.802C255.372 223.967 255.372 223.967 255.372 225.62h1.653l2.479 4.132 1.908 1.84c2.484 2.56 4.277 5.215 6.15 8.231l0.998 1.574c2.979 4.72 3.977 7.57 3.341 13.147 -2.334 5.092 -7.091 9.131 -11.57 12.397 -2.149 0.776 -3.478 0.876 -5.785 0.826v2.479c-3.489 2.479 -3.489 2.479 -5.785 2.479v1.653l-4.132 0.826v1.653l-2.602 1.301 -1.68 0.84 -3.653 1.824a826.446 826.446 0 0 0 -7.658 3.86C204.862 297.05 204.862 297.05 193.388 295.041c-3.155 -1.064 -5.268 -2.495 -7.093 -5.355 -1.552 -3.854 -2.022 -7.649 -2.618 -11.741 -1.226 -7.345 -2.813 -12.629 -7.645 -18.44a1288.43 1288.43 0 0 1 -2.579 -3.235 324.793 324.793 0 0 0 -4.105 -5.073C166.116 247.279 166.116 247.279 166.116 245.455l-2.479 -0.826v-1.653l-1.394 -0.671c-2.087 -1.072 -4.091 -2.16 -6.044 -3.461v-1.653l-1.343 -0.62c-2.444 -1.287 -4.688 -2.714 -6.921 -4.339v-1.653l-3.306 -0.826v-1.653l-1.291 -0.568c-1.736 -0.936 -3.14 -1.913 -4.701 -3.099 -3.063 -2.245 -6.118 -3.4 -9.711 -4.598v-1.653l-2.996 -0.155c-5.567 -0.604 -13.634 -2.426 -17.665 -6.457a93.388 93.388 0 0 0 -5.526 -1.24c-4.011 -0.812 -7.921 -1.683 -11.829 -2.893l2.479 -1.653 -1.417 -0.455 -1.836 -0.63 -1.831 -0.611C86.777 203.306 86.777 203.306 85.95 200.826h-1.653c-1.91 -6.773 1.721 -12.743 4.536 -18.785 1.231 -2.661 2.422 -5.336 3.607 -8.019 2.411 -5.46 4.846 -10.909 7.354 -16.326l1.331 -2.876c2.78 -5.648 4.992 -9.337 10.446 -12.671h1.653l0.826 -4.132c5.334 -2.132 9.929 -2.83 15.651 -2.686M107.438 166.116l-2.479 1.653v1.653h-1.653a799.174 799.174 0 0 0 -4.198 8.383 528.926 528.926 0 0 1 -1.563 3.128 474.38 474.38 0 0 0 -2.4 4.864l-0.777 1.525c-1.695 3.526 -2.404 6.312 -1.806 10.2 2.877 3.256 6.031 4.01 10.176 4.959 4.074 0.99 7.742 2.116 11.428 4.132 6.08 3.27 12.615 4.944 19.292 6.508 3.074 0.983 5.238 2.393 7.864 4.236h1.653v1.653a75.207 75.207 0 0 0 3.978 3.255c4.086 3.155 4.086 3.155 5.584 4.668 1.397 1.381 2.873 2.353 4.54 3.389l1.733 1.095c1.476 0.947 1.476 0.947 3.174 0.817v1.653l2.015 1.24c5.967 3.785 10.561 9.862 13.688 16.116h1.653l1.653 4.132h1.653l0.569 1.705c1.028 2.573 1.028 2.573 3.099 4.959 3.643 4.932 4.49 11.264 5.01 17.252 0.314 3.088 0.612 5.208 2.893 7.489 7.219 2.202 13.835 -0.907 20.661 -3.306l2.398 -0.713c3.617 -1.327 6.922 -3.142 10.308 -4.969l4.048 -2.163 1.988 -1.065a187.603 187.603 0 0 1 5.412 -2.712c2.884 -1.431 5.473 -3.108 8.077 -5.011l2.376 -1.711L251.24 263.636v-1.653l1.653 -0.517c4.305 -1.973 8.107 -4.619 10.744 -8.574 0.65 -3.643 0.636 -5.523 -1.246 -8.745 -1.729 -2.37 -3.54 -4.661 -5.365 -6.957a906.612 906.612 0 0 1 -3.616 -5.113c-1.529 -2.24 -1.529 -2.24 -2.996 -3.978h-1.653l-0.684 -1.479c-0.938 -1.769 -1.926 -3.093 -3.241 -4.593l-1.317 -1.516 -1.369 -1.554q-1.345 -1.537 -2.686 -3.077c-0.397 -0.451 -0.793 -0.901 -1.201 -1.366C237.19 213.223 237.19 213.223 235.537 210.744h-1.653v-1.653h-1.653l-0.826 -2.479h-1.653v-1.653h-1.653l-0.62 -1.446c-1.184 -2.132 -2.507 -3.563 -4.339 -5.165h-1.653l-0.826 -2.479h-1.653v-1.653a76.86 76.86 0 0 0 -4.803 -3.977l-1.469 -1.124c-8.764 -6.512 -17.36 -9.117 -28.235 -7.726 -7.805 1.45 -15.017 3.574 -22.517 6.215 -12.814 4.291 -26.63 7.821 -39.669 2.479 -3.883 -1.981 -3.883 -1.981 -4.959 -4.132h-1.653l-0.671 -1.704a116.529 116.529 0 0 0 -2.169 -5.011c-1.474 -3.363 -2.296 -6.866 -3.155 -10.427L109.091 166.942z" fill="#371553"/><path d="M210.492 127.025c7.75 -0.426 15.228 2.169 22.566 4.38l1.812 0.535c7.012 2.107 7.012 2.107 9.758 3.598l0.669 2.105c0.745 2.121 0.745 2.121 2.412 2.579 2 0.399 3.983 0.667 6.011 0.894l2.225 0.293c5.6 0.7 11.213 1.102 16.855 1.254 3.575 0.118 6.514 0.667 9.846 1.965l1.912 0.723c1.822 1.215 1.753 2.164 2.221 4.236l2.479 0.826v1.653h1.653c1.639 3.064 2.646 5.699 3.306 9.091l1.653 1.653 1.188 2.841c1.154 2.631 1.81 3.548 3.77 5.423 1.363 2.797 1.653 4.246 1.653 7.438l2.479 0.826c0.791 1.511 0.791 1.511 1.498 3.512 2.319 6.209 5.067 12.246 8.138 18.121 1.589 3.35 1.749 6.231 0.545 9.772 -0.592 1.398 -1.25 2.769 -1.917 4.132h-1.653l-0.671 1.498c-1.562 2.878 -2.649 4.04 -5.837 5.01 -2.702 0.755 -2.702 0.755 -4.493 2.945 -3.467 3.305 -7.175 4.635 -11.978 4.561 -2 -0.196 -3.967 -0.448 -5.946 -0.791v-1.653l-2.273 -0.464c-3.715 -1.644 -4.302 -3.336 -5.992 -6.974v-1.653l-2.479 -0.826v-2.479l-2.479 -0.826c-3.042 -2.802 -5.729 -5.831 -8.264 -9.091v-1.653l-1.963 -0.568C257.025 200.826 257.025 200.826 255.94 198.657L255.372 196.694l-2.583 0.775C249.587 197.521 249.587 197.521 248.215 196.374a85.95 85.95 0 0 1 -2.467 -3.157c-1.269 -1.679 -2.668 -2.812 -4.426 -3.961l2.479 -2.479c-3.476 -4.303 -7.093 -7.783 -11.525 -11.089 -2.131 -1.64 -3.931 -3.54 -5.831 -5.44a269.421 269.421 0 0 0 -5.956 -4.504L219.008 164.463v-1.653l-1.653 -0.207c-2.213 -0.554 -3.741 -1.217 -5.733 -2.273 -2.762 -1.446 -5.184 -2.166 -8.317 -2.479l-0.826 3.306 -8.264 -0.826 3.306 -3.306c-1.453 -1.453 -3.45 -0.969 -5.423 -0.981 -4.469 0.034 -8.843 0.349 -13.275 0.878l-1.719 0.197c-2.856 0.371 -4.413 0.758 -6.855 2.386 -1.538 0.332 -3.091 0.601 -4.649 0.826 -3.807 0.572 -7.476 1.314 -11.186 2.337C152.893 162.81 152.893 162.81 150.413 161.157c0.412 -3.087 0.723 -4.803 2.479 -7.438l1.912 -1.136c2.298 -1.248 2.298 -1.248 3.977 -3.254 5.069 -4.739 11.869 -7.439 18.082 -10.421 1.771 -0.855 1.771 -0.855 3.302 -2.544l1.705 -0.413L183.471 135.537l0.826 -1.653c1.953 -0.826 1.953 -0.826 4.391 -1.653 3.231 -1.085 3.231 -1.085 6.307 -2.525 4.688 -2.157 10.421 -2.116 15.496 -2.683M202.479 135.537v1.653l-1.424 0.332c-1.897 0.498 -3.704 1.124 -5.549 1.785 -2.289 0.797 -3.557 1.208 -5.992 0.982 -2.531 0.274 -3.017 1.2 -4.649 3.099 -0.752 0.955 -1.497 1.917 -2.221 2.893 2.668 1.779 3.54 1.818 6.612 1.653v-1.653c8.777 0.603 8.777 0.603 12.345 1.756 2.457 0.702 3.507 0.829 5.836 -0.103v1.653l2.025 0.817 2.676 1.095 2.644 1.074C217.355 153.719 217.355 153.719 219.576 155.088c2.407 1.399 4.133 1.302 6.87 1.111l0.826 4.132 2.479 0.826v3.306h1.653l0.155 1.446c1.168 3.236 3.917 4.7 6.869 6.25 2.47 1.667 3.696 3.512 5.279 6.001L244.628 179.339h1.653l0.569 1.446c1.356 2.326 3.098 3.535 5.217 5.165l0.826 1.653c1.572 0.496 1.572 0.496 3.306 0.826l2.479 0.826v2.479h2.479v2.479h2.479v2.479h1.653l1.653 7.438 3.306 -0.826 0.826 4.132h1.653l0.036 1.482c0.209 3.46 0.327 5.4 2.598 8.126L277.686 219.008c1.289 1.478 2.533 2.988 3.777 4.504 2.018 2.188 3.384 2.907 6.347 3.193 3.798 -0.317 7.325 -1.149 10.075 -3.952 1.474 -1.447 2.889 -2.188 4.75 -3.074l1.791 -0.861L305.785 218.182v-1.653l4.132 -1.653v-1.653h1.653c1.709 -3.418 1.818 -5.408 0.826 -9.091a157.025 157.025 0 0 0 -1.601 -3.512c-1.853 -3.955 -2.676 -7.895 -3.358 -12.19h-1.653l-1.653 -3.306h-1.653v-2.479h-1.653v-2.479h-1.653l-0.31 -2.789c-0.225 -3.021 -0.225 -3.021 -2.169 -4.649a188.43 188.43 0 0 1 -2.324 -6.302c-1.784 -4.929 -3.727 -9.24 -6.767 -13.533l-1.498 -2.737c-2.366 -2.907 -4.869 -3.837 -8.42 -4.701 -3.306 -0.302 -6.599 -0.299 -9.917 -0.31 -7.54 -0.16 -13.814 -0.975 -20.884 -3.538 -3.402 -1.226 -6.807 -2.155 -10.314 -3.021l-1.674 -0.43c-2.662 -0.659 -4.854 -0.965 -7.623 -0.965v-1.653c-2.317 -0.772 -3.738 -0.933 -6.134 -0.936l-2.157 -0.003 -2.246 0.01 -2.208 -0.01c-4.105 0.007 -8.002 0.243 -12.048 0.94" fill="#E87A00"/><path d="M242.975 127.273c-2.479 0.826 -2.479 0.826 -4.959 0.826l-0.826 4.132c-5.599 -1.573 -11.309 -3.18 -16.529 -5.785l-0.826 -1.653c-1.572 -0.496 -1.572 -0.496 -3.306 -0.826l-2.479 -0.826v2.479l-1.792 0.217c-6.743 0.95 -12.6 2.966 -18.869 5.569 -6.227 2.479 -6.227 2.479 -9.091 2.479l-0.826 2.479c-1.364 0.584 -2.744 1.129 -4.132 1.653l-2.376 1.602c-2.212 1.46 -4.287 2.438 -6.725 3.438C164.376 145.717 159.785 149.091 155.372 153.719l-2.479 0.826c-0.841 1.541 -0.841 1.541 -1.394 3.358l-0.63 1.836L150.413 161.157c2.914 1.019 4.683 0.605 7.593 -0.31 3.598 -1.064 6.95 -1.688 10.692 -1.914 1.821 -0.19 1.821 -0.19 4.029 -1.908 2.048 -0.388 4.03 -0.694 6.095 -0.93l1.769 -0.209c5.322 -0.586 10.765 -1.087 16.103 -0.514l1.653 1.653 -1.653 2.479 5.785 1.653 0.826 -4.132c3.926 0.982 7.269 2.291 10.831 4.213 1.553 0.807 1.553 0.807 3.303 1.149 2.046 0.552 2.992 1.765 4.403 3.287 2.218 2.169 4.758 3.936 7.254 5.772L230.579 172.727v1.653l1.421 0.633c5.288 2.86 9.651 7.412 12.629 12.59l-1.653 1.653 2.479 1.653v2.479l1.55 0.723C248.76 195.041 248.76 195.041 250.413 196.694h3.306l-0.826 3.306 2.479 -0.826c1.039 2.402 1.653 3.964 1.653 6.612h-2.479l3.306 8.264c-2.855 -0.952 -3.394 -1.643 -4.959 -4.132l-0.413 -1.704c-0.509 -1.972 -1.446 -2.698 -2.893 -4.081v-1.653l-1.911 -0.361c-2.273 -0.476 -4.275 -1.079 -6.354 -2.118l-0.258 -1.55c-0.817 -2.522 -2.466 -2.927 -4.701 -4.236a147.934 147.934 0 0 1 -1.653 -3.306c-1.681 -1.048 -1.681 -1.048 -3.306 -1.653v-2.479h2.479v1.653h1.653l0.826 1.653 0.826 -0.826q-1.159 -1.192 -2.324 -2.376l-1.308 -1.336c-1.436 -1.418 -1.436 -1.418 -3.806 -2.899 -1.807 -1.653 -1.807 -1.653 -3.306 -3.306v-1.653l-1.433 -0.639c-2.074 -1.123 -3.614 -2.455 -5.385 -4.01 -9.509 -7.661 -19.226 -12.021 -31.57 -10.763 -11.714 1.836 -23.014 5.952 -34.269 9.575 -18.003 5.783 -18.003 5.783 -24.864 5.01 -1.937 -1.243 -1.937 -1.243 -3.306 -2.479 0.124 -5.844 2.812 -8.962 6.612 -13.223l1.602 -1.807c13.983 -14.831 34.045 -24.826 52.117 -33.73v-0.826l1.963 -0.31c2.286 -0.344 2.286 -0.344 3.822 -2.169 1.62 -0.587 1.62 -0.587 3.616 -1.136 3.279 -0.922 6.457 -1.991 9.66 -3.15 13.603 -4.46 25.889 3.354 37.964 9.245m-2.479 65.289 0.826 2.479v-2.479zm2.479 3.306 0.826 3.306 1.653 -1.653z" fill="#CE700B"/><path d="M333.884 72.727c3.752 1.116 4.736 2.44 6.612 5.785 1.091 0.841 2.19 1.671 3.306 2.479v1.653l3.306 0.826 0.826 3.306h2.479v1.653l1.498 0.569c2.312 1.388 2.948 2.884 4.287 5.217q1.391 2.145 2.789 4.288c2.371 3.691 4.372 7.426 6.185 11.418 0.926 1.905 0.926 1.905 3.422 3.302 1.622 2.91 2.818 6.031 4.132 9.091l1.311 2.767c2.744 5.935 4.312 11.25 4.952 17.765 0.251 2.579 0.251 2.579 1.133 4.791 1.319 4.215 1.669 8.521 2.16 12.9q0.308 2.693 0.623 5.385l0.27 2.396c0.196 1.943 0.196 1.943 1.121 3.583 0.102 2.458 0.156 4.895 0.168 7.354l0.014 2.264q0.012 2.391 0.017 4.782c0.008 2.378 0.033 4.755 0.06 7.132 0.079 13.466 -1.436 26.455 -4.752 39.521l-0.531 2.17a342.149 342.149 0 0 1 -4.201 15.311c-0.64 2.274 -1.126 4.529 -1.569 6.848L372.727 260.331l-2.479 0.826c-1.05 2.162 -1.696 4.293 -2.324 6.612 -1.178 2.975 -2.84 4.393 -5.114 6.612 -1.482 2.617 -1.482 2.617 -2.479 4.959h-1.653l-0.62 2.531c-0.974 3.392 -2.393 6.091 -4.339 9.039l-2.479 0.826c-1.007 2.069 -1.007 2.069 -1.653 4.132h-1.653l-0.155 1.395c-0.96 2.73 -2.657 4.157 -4.804 6.043h-1.653l-0.826 3.306h-0.826c0.142 -5.709 1.405 -8.838 4.959 -13.223l1.395 -2.324C347.107 289.256 347.107 289.256 348.76 287.603c0.883 -1.942 1.583 -3.896 2.192 -5.94 1.193 -3.922 2.21 -6.096 5.246 -8.936 1.427 -3.676 2.204 -7.394 2.945 -11.26 1.141 -5.928 1.141 -5.928 1.655 -7.787 1.572 -7.078 0.865 -13.633 -2.869 -19.806C357.025 232.231 357.025 232.231 357.025 229.752h-1.653l-0.723 -1.601c-0.788 -1.831 -0.788 -1.831 -2.583 -2.531v-1.653h-1.653l-0.671 -1.911c-0.806 -2.192 -0.806 -2.192 -2.169 -3.39 -1.438 -1.459 -2.204 -2.833 -3.099 -4.669l-0.862 -1.733C342.975 210.744 342.975 210.744 342.975 209.091l-1.527 -0.087C339.669 208.264 339.669 208.264 338.588 206.002l-0.934 -2.955a885.124 885.124 0 0 0 -1.062 -3.193l-0.533 -1.62c-3.086 -9.102 -7.46 -18.068 -12.351 -26.334 -1.382 -2.458 -2.174 -4.765 -3.047 -7.438a130.579 130.579 0 0 0 -1.601 -3.202c-1.426 -2.766 -2.545 -5.549 -3.587 -8.478 -0.636 -1.739 -0.636 -1.739 -1.94 -4.022 -1.385 -3.022 -1.766 -5.817 -1.963 -9.091l-0.161 -2.085c-0.215 -4.773 0.304 -7.343 3.467 -11.138l1.098 -1.682c1.679 -1.974 3.031 -2.483 5.463 -3.329 2.928 -1.029 5.054 -2.161 7.489 -4.08l2.841 -1.55c5.107 -2.898 7.546 -6.281 9.555 -11.674h1.653c-0.178 -5.823 -0.355 -10.792 -3.319 -15.893 -1.647 -2.963 -2.331 -6.24 -2.776 -9.572 -0.345 -1.964 -0.345 -1.964 -2.221 -2.893L333.058 75.207zm14.876 20.661 -0.826 4.959h-2.479l-0.274 1.482c-0.774 3.855 -1.649 6.775 -3.858 10.088v1.653h-2.479c-1.032 1.224 -1.032 1.224 -1.911 2.789 -2.017 3.025 -3.621 3.74 -7.18 4.649l-1.704 1.292c-1.893 1.403 -3.424 1.693 -5.734 2.014v2.479l-3.306 0.826 -0.826 3.306h-2.479c-1.438 5.93 -0.989 10.004 1.634 15.409 1.314 3.023 1.917 6.151 2.498 9.384l1.598 0.284L323.14 154.545a103.306 103.306 0 0 1 1.653 4.132l2.479 0.826 -0.155 2.118c0.15 2.771 0.798 4.486 1.972 6.963 1.264 3.176 1.74 6.569 2.315 9.927l2.479 0.826c0.612 1.909 1.159 3.841 1.653 5.785 1.038 2.638 1.038 2.638 3.306 4.132 0.704 1.707 0.704 1.707 1.343 3.771 0.215 0.683 0.43 1.365 0.653 2.069L341.322 196.694h1.653v4.132l2.479 0.826a104.959 104.959 0 0 1 1.653 4.959l1.653 1.653a90.909 90.909 0 0 1 1.756 4.649l0.884 2.512L352.066 217.355h1.653l0.672 1.912c0.946 2.142 1.612 3.296 3.46 4.7h2.479v5.785h1.653l0.672 1.705a115.702 115.702 0 0 0 2.221 5.113c1.473 3.406 2.187 6.907 2.893 10.537l0.517 2.531L368.595 251.24c2.546 -0.533 2.546 -0.533 3.292 -2.345l0.695 -1.974 0.767 -2.172 0.773 -2.289 0.802 -2.231c1.463 -4.236 2.061 -7.609 1.936 -12.128 0.665 -2.479 0.665 -2.479 1.55 -4.959 3.265 -10.017 3.692 -20.217 3.616 -30.682l-0.007 -1.672c-0.098 -26.266 -0.098 -26.266 -7.657 -51.127 -0.828 -1.686 -1.273 -3.224 -1.686 -5.052 -0.601 -3.011 -0.601 -3.011 -1.601 -4.855h-1.653l-0.217 -1.46C368.182 122.322 366.117 117.08 363.636 111.57h-1.653v-3.306h-1.653l-1.653 -4.959h-1.653l-0.826 -3.306h-1.653l-0.207 -1.55c-0.465 -1.909 -0.465 -1.909 -2.324 -2.789L350.413 95.041v-1.653z" fill="#E67800"/><path d="m339.669 105.785 1.653 -0.826c-1.496 5.85 -5.167 8.921 -9.917 12.397a110.744 110.744 0 0 1 -4.959 2.479q-1.732 0.876 -3.46 1.756c-1.891 0.962 -3.604 1.701 -5.631 2.376 -3.976 4.459 -5.257 7.52 -5.111 13.407 0.435 6.577 1.75 11.96 4.93 17.759 1.045 1.963 1.84 3.959 2.66 6.024l1.24 1.963c1.468 2.568 2.082 5.117 2.893 7.955 0.793 1.397 1.625 2.772 2.479 4.132 2.699 5.044 5.006 10.212 7.16 15.509 0.799 1.934 1.617 3.848 2.466 5.759l0.693 1.57c0.65 1.471 1.307 2.94 1.964 4.409C339.669 204.959 339.669 204.959 339.669 208.264l1.511 0.158c2.556 0.952 2.938 2.318 4.068 4.749l1.072 2.244C347.107 217.355 347.107 217.355 347.107 219.008l2.479 0.826 0.826 4.132h1.653v1.653l2.479 0.826c0.569 1.705 0.569 1.705 0.826 3.306h1.653c1.491 2.281 1.664 3.215 1.343 5.992L357.851 238.017l-0.826 -1.653 -1.704 0.413c-2.772 0.471 -5.407 0.44 -8.213 0.413 -5 -9.838 -9.732 -19.785 -14.36 -29.803l-1.041 -2.251c-4.643 -10.031 -9.179 -20.094 -13.531 -30.255 -1.906 -4.439 -3.953 -8.804 -6.017 -13.171 -1.63 -3.465 -3.174 -6.967 -4.72 -10.469 -4.779 -10.957 -4.779 -10.957 -10.063 -21.672 -1.032 -2.226 -0.937 -4.015 -0.681 -6.427 1.872 -2.388 4.188 -3.457 6.893 -4.745l2.664 -1.275 2.788 -1.314 2.701 -1.294c21.645 -10.298 21.645 -10.298 27.93 -8.726" fill="#D56F00"/><path d="M91.303 213.207c6.619 0.436 10.601 1.264 15.515 5.905 2.182 3.583 3.926 8.039 3.926 12.293l1.36 -0.875 1.791 -1.139 1.773 -1.134c3.747 -2.185 7.387 -2.296 11.606 -1.811 3.637 1.117 6.058 2.724 8.678 5.475 1.636 3.681 1.967 7.08 1.24 11.054 -1.262 1.905 -1.262 1.905 -2.479 3.306l-0.826 -1.653 -1.653 0.826 -1.273 -1.12c-3.393 -2.982 -6.812 -5.922 -10.298 -8.798l0.826 -1.653h3.306v-1.653h-4.959l-0.826 2.479 -9.917 -2.479 -0.826 -7.438h-1.653c-0.125 2.999 -0.125 2.999 0.826 5.785 -2.014 -0.671 -2.014 -0.671 -4.132 -1.653 -0.917 -2.749 -1.274 -5.397 -1.653 -8.264h-0.826l0.465 2.376C101.653 225.62 101.653 225.62 100.826 227.273l-1.653 -0.826c-3.502 -0.351 -6.471 -0.565 -9.555 1.24L88.43 228.926v-2.479l-4.959 0.826 -1.653 4.959 2.479 -0.826 1.653 3.306h3.306l1.653 4.132h-2.479v1.653l4.132 -0.826 1.653 3.306h1.653c1.843 3.576 1.591 6.02 0.826 9.917h1.653v-2.479c2.736 0.202 3.573 1.075 5.631 2.996 1.864 2.341 1.81 2.748 1.653 5.992L104.959 261.983l0.826 -3.306c3.902 0.398 6.364 2.229 9.35 4.598l1.377 1.064A437.19 437.19 0 0 1 119.835 266.942l-1.653 0.826v3.306c-6.992 -0.518 -13.292 -2.017 -18.182 -7.335 -3.821 -4.874 -4.34 -8.955 -4.132 -14.979l-1.394 -0.217c-5.946 -1.094 -10.328 -3.241 -14.618 -7.531C76.988 236.38 76.555 231.783 76.86 226.446l0.045 -1.802c0.109 -1.762 0.109 -1.762 0.781 -4.81 1.912 -1.55 1.912 -1.55 4.132 -2.479l1.756 -0.981C85.124 215.702 85.124 215.702 87.603 215.702l0.826 -1.653c0.826 -0.826 0.826 -0.826 2.874 -0.843" fill="#D07616"/><path d="M210.492 127.025c11.057 -0.607 24.112 4.034 34.136 8.512l0.826 1.653c-6.931 -1.204 -13.465 -3.21 -20.121 -5.463 -7.954 -2.549 -14.817 -2.736 -22.802 -0.322 -3.288 0.979 -5.699 1.653 -9.143 1.653v2.479c-8.43 4.959 -8.43 4.959 -12.397 4.959v1.653c-0.558 0.26 -1.116 0.521 -1.692 0.788 -5.519 2.536 -5.519 2.536 -9.879 6.65l-0.826 2.479 1.953 -0.17a287.603 287.603 0 0 1 20.103 -0.966l2.868 -0.093c6.562 -0.068 10.804 1.185 16.398 4.536l2.889 1.401 2.431 1.182 2.476 1.194c1.931 1.076 3.123 2.055 4.6 3.661 1.364 0.848 2.744 1.672 4.132 2.479 3.493 2.183 6.25 4.461 9.091 7.438q1.649 1.657 3.306 3.306 2.645 2.645 5.285 5.294a374.38 374.38 0 0 0 4.488 4.391l2.366 2.298 1.215 1.153c2.387 2.336 3.837 4.326 4.828 7.525h1.653c1.427 1.808 1.427 1.808 2.996 4.132l1.582 2.325L264.463 204.959l-0.826 1.653c-1.24 -1.136 -1.24 -1.136 -2.479 -2.479v-1.653l-1.963 -0.568C257.025 200.826 257.025 200.826 255.94 198.657L255.372 196.694l-2.583 0.775C249.587 197.521 249.587 197.521 248.215 196.374a85.95 85.95 0 0 1 -2.467 -3.157c-1.269 -1.679 -2.668 -2.812 -4.426 -3.961l2.479 -2.479c-3.476 -4.303 -7.093 -7.783 -11.525 -11.089 -2.131 -1.64 -3.931 -3.54 -5.831 -5.44a269.421 269.421 0 0 0 -5.956 -4.504L219.008 164.463v-1.653l-1.653 -0.207c-2.213 -0.554 -3.741 -1.217 -5.733 -2.273 -2.762 -1.446 -5.184 -2.166 -8.317 -2.479l-0.826 3.306 -8.264 -0.826 3.306 -3.306c-1.453 -1.453 -3.45 -0.969 -5.423 -0.981 -4.469 0.034 -8.843 0.349 -13.275 0.878l-1.719 0.197c-2.856 0.371 -4.413 0.758 -6.855 2.386 -1.538 0.332 -3.091 0.601 -4.649 0.826 -3.807 0.572 -7.476 1.314 -11.186 2.337C152.893 162.81 152.893 162.81 150.413 161.157c0.412 -3.087 0.723 -4.803 2.479 -7.438l1.912 -1.136c2.298 -1.248 2.298 -1.248 3.977 -3.254 5.069 -4.739 11.869 -7.439 18.082 -10.421 1.771 -0.855 1.771 -0.855 3.302 -2.544l1.705 -0.413L183.471 135.537l0.826 -1.653c1.953 -0.826 1.953 -0.826 4.391 -1.653 3.231 -1.085 3.231 -1.085 6.307 -2.525 4.688 -2.157 10.421 -2.116 15.496 -2.683" fill="#D97100"/><path d="m152.066 245.455 0.569 1.602c1.248 2.913 2.779 5.587 4.371 8.326C157.851 257.025 157.851 257.025 157.851 258.678l2.479 0.826 -1.653 6.612 2.066 -0.826c4.561 -1.303 8.437 -1.763 12.655 0.569 4.087 3.191 4.37 8.649 5.113 13.481v-7.438c2.342 3.512 1.994 6.621 1.653 10.744 -0.826 2.583 -0.826 2.583 -1.653 4.132h-1.653l-0.361 2.686c-0.331 2.204 -0.693 4.268 -1.292 6.405h1.653c2.178 1.742 2.726 3.112 3.306 5.785 -8.899 2.569 -16.975 4.166 -25.62 0 -4.343 -2.658 -7.754 -5.807 -10.744 -9.917v-1.653l-1.879 0.145c-6.344 0.279 -11.164 -0.355 -16.303 -4.278 -4.124 -4.422 -5.678 -8.992 -6.612 -14.876 3.075 -0.304 4.518 -0.314 7.077 1.511L128.099 274.587c3.317 3.205 3.317 3.205 7.077 5.837C137.19 281.818 137.19 281.818 137.965 283.574 138.017 285.124 138.017 285.124 137.19 286.777l2.428 -1.084c2.145 -0.625 3.091 -0.674 5.194 0.155 1.897 1.093 3.748 2.243 5.601 3.409 3.193 1.569 5.888 2.576 9.401 2.945L162.81 292.562l0.826 1.653 0.672 -1.55C165.289 290.909 165.289 290.909 167.769 289.256l0.826 -2.479h1.653c-0.8 -3.079 -1.552 -5.595 -3.047 -8.419 -1.085 -2.325 -1.085 -2.325 -0.826 -4.288L166.942 272.727l3.306 -0.826 -1.653 0.826v1.653l4.132 -0.826v4.132h1.653v2.479h1.653l-0.826 -8.264 -2.479 0.826 -1.653 -0.826c-0.517 -2.531 -0.517 -2.531 -0.826 -4.959l-0.826 1.653a70.248 70.248 0 0 1 -5.785 -1.653 77.686 77.686 0 0 0 -3.306 0.207c-1.779 0.017 -1.779 0.017 -3.306 -0.207 -1.291 -1.704 -1.291 -1.704 -2.479 -4.132 -2.731 -3.073 -5.684 -5.948 -9.091 -8.264l1.602 -0.62c2.109 -1.005 2.109 -1.005 2.531 -4.339l-7.438 -1.653c2.974 -2.974 5.915 -2.555 9.917 -2.479" fill="#CF791F"/><path d="M304.959 165.289h2.479q3.26 7.048 6.508 14.102l0.969 2.103c4.269 9.271 8.474 18.56 12.464 27.955l0.897 2.102 0.752 1.783c0.777 1.755 0.777 1.755 2.376 4.021 -0.017 1.663 -0.017 1.663 -0.826 3.306 -2.025 1.204 -2.025 1.204 -4.7 2.325l-2.958 1.288 -1.548 0.668c-9.546 4.21 -18.635 9.413 -27.552 14.809l-2.705 1.623 -2.415 1.476L286.777 243.802l-1.653 -0.826 -0.826 -4.132 -1.653 -0.826 2.479 -0.826c0.606 -1.665 0.606 -1.665 0.826 -3.306l-1.653 -0.826 0.826 -0.826h5.785l2.479 -0.826 1.653 0.826v-2.479c3.099 -0.93 3.099 -0.93 4.959 0v-2.479l1.873 -0.998 2.466 -1.327 2.44 -1.307c5.354 -3.073 7.651 -6.248 9.75 -12.07 1.236 -6.737 -0.898 -13.613 -4.559 -19.302 -1.509 -2.69 -2.16 -5.404 -2.827 -8.384 -1.419 -6.016 -3.116 -11.883 -5.011 -17.769z" fill="#D17511"/><path d="M108.264 240.496c4.074 0.109 7.879 0.693 11.57 2.479v1.653l2.479 0.826v1.653h2.479v2.479h1.653v1.653h1.653c3.306 3.694 3.306 3.694 3.306 5.785h1.653v1.653l1.453 0.274c3.981 0.808 7.417 1.742 10.944 3.858l0.826 1.653c1.667 0.937 1.667 0.937 3.306 1.653v1.653l1.602 0.672C152.893 269.421 152.893 269.421 153.719 271.901l2.479 0.826c1.204 1.982 1.204 1.982 2.325 4.442l1.152 2.446L160.331 281.818l-1.653 2.479c-2.283 -0.432 -4.402 -0.917 -6.612 -1.653v-1.653l-4.959 -0.826v-1.653l-1.802 -0.264c-2.555 -0.617 -4.332 -1.564 -6.566 -2.938l-2.124 -1.285c-1.696 -1.155 -3.07 -2.206 -4.384 -3.777v-1.653l-1.498 -0.671c-1.823 -0.99 -2.995 -1.845 -4.288 -3.461v-2.479l-1.343 -0.207c-2.664 -0.841 -4.633 -2.337 -6.921 -3.926l-2.376 -1.343L114.05 255.372v-1.653l-1.446 -0.464c-2.686 -1.717 -4.006 -4.077 -5.165 -6.974 -0.258 -2.789 -0.258 -2.789 0 -4.959z" fill="#F27F00"/><path d="m144.018 247.873 2.004 0.32 2.025 0.3L149.587 248.76l0.826 2.479c-1.601 2.221 -1.601 2.221 -3.306 4.132l1.331 1.149c6.967 6.053 6.967 6.053 8.587 7.942v2.479l9.091 -0.826 0.826 1.653 3.306 -0.826 0.826 4.959h4.132c1.328 2.657 0.874 5.319 0.826 8.264h-1.653v-2.479h-1.653v-4.132l-4.132 0.826 -0.826 -1.653c-0.7 1.978 -0.969 2.945 -0.184 4.93l0.959 1.631c1.434 2.636 2.088 4.427 1.705 7.489h-1.653l-0.258 1.55C167.769 290.083 167.769 290.083 165.289 291.736c-0.985 1.694 -0.985 1.694 -1.653 3.306l-1.653 -1.653 -3.047 -0.568c-4.521 -0.884 -8.405 -2.869 -12.465 -4.969 -2.977 -1.536 -2.977 -1.536 -6.243 -1.659L138.843 286.777h-1.653l-0.139 -2.266c-0.886 -3.471 -2.122 -4.168 -5.078 -6.102 -4.493 -2.987 -4.493 -2.987 -6.457 -5.023 -2.212 -2.12 -4.365 -1.975 -7.335 -2.312l-0.826 -1.653 0.826 -2.479a675.207 675.207 0 0 0 -4.339 -3.667l-2.44 -2.064c-2.031 -1.499 -3.165 -2.213 -5.617 -2.534l0.826 3.306h-1.653v-5.785l3.306 -0.826 0.775 1.446c2.139 2.334 4.263 3.085 7.15 4.288 4.949 2.182 9.195 5.048 12.736 9.142v1.653l2.479 0.826v1.653h1.653a653.719 653.719 0 0 1 2.479 4.132c2.135 1.423 3.362 1.997 5.734 2.686 3.287 1.033 6.161 2.449 9.194 4.081 4.182 2.157 6.86 2.928 11.518 2.324l1.653 -0.826c0.465 -5.204 0.465 -5.204 -1.653 -9.814L160.331 275.207v-2.479h-1.653l-0.155 -1.963L157.851 268.595a64.463 64.463 0 0 0 -4.132 -1.653 233.884 233.884 0 0 1 -4.132 -4.132l-2.324 -1.394L145.455 260.331v-1.653l-2.84 -0.723L139.669 257.025l-0.826 -1.653h3.306l-3.306 -3.306c1.26 -2.519 2.216 -4.097 5.175 -4.193" fill="#D56F00"/><path d="M203.306 157.025c3.926 0.982 7.269 2.291 10.831 4.213 1.553 0.807 1.553 0.807 3.303 1.149 2.046 0.552 2.992 1.765 4.403 3.287 2.218 2.169 4.758 3.936 7.254 5.772L230.579 172.727v1.653l1.421 0.633c5.288 2.86 9.651 7.412 12.629 12.59l-1.653 1.653 2.479 1.653v2.479l1.55 0.723C248.76 195.041 248.76 195.041 250.413 196.694h3.306l-0.826 3.306 2.479 -0.826c1.039 2.402 1.653 3.964 1.653 6.612h-2.479l3.306 8.264c-2.855 -0.952 -3.394 -1.643 -4.959 -4.132l-0.413 -1.704c-0.509 -1.972 -1.446 -2.698 -2.893 -4.081v-1.653l-1.911 -0.361c-2.273 -0.476 -4.275 -1.079 -6.354 -2.118l-0.258 -1.55c-0.817 -2.522 -2.466 -2.927 -4.701 -4.236a147.934 147.934 0 0 1 -1.653 -3.306c-1.681 -1.048 -1.681 -1.048 -3.306 -1.653v-2.479h2.479v1.653h1.653l0.826 1.653 0.826 -0.826q-1.159 -1.192 -2.324 -2.376l-1.308 -1.336c-1.436 -1.418 -1.436 -1.418 -3.806 -2.899 -1.807 -1.653 -1.807 -1.653 -3.306 -3.306v-1.653l-1.433 -0.639c-2.074 -1.123 -3.614 -2.455 -5.385 -4.01 -11.511 -9.273 -22.183 -11.936 -36.845 -10.437L180.992 162.81c4.017 -2.678 7.696 -2.593 12.449 -2.583l3.025 -0.007c2.185 0.088 3.944 0.286 6.014 0.936zm37.19 35.537 0.826 2.479v-2.479zm2.479 3.306 0.826 3.306 1.653 -1.653z" fill="#D37C1F"/><path d="M293.388 32.231h1.653v1.653h1.653v2.479l5.785 0.826 -0.826 -2.479h4.132c1.207 2.188 1.653 3.218 1.653 5.785h1.653l0.826 1.653 2.479 0.826 0.826 4.132 3.306 -0.826v1.653l1.653 0.826 -2.479 0.826 0.826 2.479c1.535 0.504 1.535 0.504 3.306 0.826l1.602 0.826c1.715 0.93 1.715 0.93 3.822 1.188 2.321 0.536 2.917 1.23 4.493 2.944 1.736 0.972 1.736 0.972 3.306 1.653l0.826 -2.479 0.31 1.602L334.711 60.331l1.653 0.826v2.479a233.884 233.884 0 0 0 4.132 4.132l0.826 2.479h1.653l0.826 4.132c-2.634 -1.132 -4.077 -2.349 -5.836 -4.597 -1.705 -2.175 -2.191 -2.762 -4.907 -3.668v-1.653l-2.634 -0.671c-2.843 -0.886 -4.93 -1.661 -7.283 -3.461 -0.671 -1.807 -0.671 -1.807 -0.826 -3.306l-1.963 -0.361C318.182 56.198 318.182 56.198 316.529 55.372v-2.479l-3.306 0.826c1.152 3.36 2.743 5.699 5.011 8.42C321.421 65.983 321.421 65.983 322.314 67.769c-4.573 -1.108 -7.26 -4.588 -9.917 -8.264v-1.653h-1.653l-0.826 -1.653 -2.479 -0.826v1.653h-1.653v-2.479h-2.479v-1.653h-1.653l-0.826 -1.653c-1.674 -0.539 -1.674 -0.539 -3.306 -0.826 -0.517 -1.911 -0.517 -1.911 -0.826 -4.132l1.653 -2.479 -4.132 2.479 -0.826 -2.479h2.479v-1.653h-2.479v-1.653h-4.132v-4.132h4.132z" fill="#CE6B00"/><path d="M356.198 238.017c0.726 2.56 0.821 4.055 0 6.612h1.653l0.826 4.132 -1.653 0.826 -0.361 2.376c-0.482 2.674 -0.864 3.433 -2.945 5.062l2.479 0.826c-0.952 2.04 -1.693 3.345 -3.306 4.959h-2.479v5.785h-2.479l-0.361 1.86a56.198 56.198 0 0 1 -0.93 3.926c-0.43 1.96 -0.417 3.785 -0.362 5.785h-1.653l0.103 1.912C344.628 284.298 344.628 284.298 342.975 286.777h1.653c-0.31 1.602 -0.31 1.602 -0.826 3.306l-1.653 0.826 -0.826 2.479h-1.653l-0.155 2.635c-0.793 3.718 -1.999 4.82 -4.804 7.283l-1.653 2.479h-1.653l-0.826 4.132h-1.653l-0.723 1.912C327.273 314.05 327.273 314.05 325.62 316.529h-1.653l-0.229 1.485c-0.74 2.255 -1.704 3.036 -3.542 4.507l-1.603 1.304L317.355 324.793c0 -2.479 0 -2.479 1.912 -4.442L321.488 318.182a327.273 327.273 0 0 0 2.479 -4.132l1.705 -1.653c1.703 -1.543 1.703 -1.543 2.343 -3.587 1.274 -3.076 3.291 -5.293 5.407 -7.831 1.262 -1.768 1.764 -2.992 2.115 -5.111l-2.479 -0.826v3.306h-2.479v1.653h-1.653v1.653l-1.601 0.672c-1.979 0.888 -1.979 0.888 -2.531 3.46 -4.517 4.132 -4.517 4.132 -6.612 4.132 1.186 -2.62 2.646 -4.621 4.494 -6.818C338.402 283.669 348.817 261.799 356.198 238.017" fill="#D36E00"/><path d="M253.719 196.694h1.653l1.136 1.963c1.11 2.232 1.11 2.232 2.906 2.909 2.185 1.145 3.102 2.479 4.532 4.477 1.777 2.386 3.445 4.412 5.785 6.25C271.901 214.05 271.901 214.05 272.727 216.529l1.55 1.498C277.293 221.132 278.512 223.776 278.512 228.099c-2.756 -0.919 -3.832 -2.045 -5.785 -4.132 0.267 3.93 0.267 3.93 2.015 7.335 1.303 0.992 1.303 0.992 2.944 1.756 1.043 3.698 1.043 3.698 0 5.785h2.479v1.653h1.653a86.777 86.777 0 0 1 3.306 4.132c-2.479 1.653 -2.479 1.653 -5.785 1.653l-0.723 -1.55c-0.878 -1.866 -0.878 -1.866 -2.583 -3.409l-0.826 -1.653 -2.066 -1.911c-2.507 -2.694 -2.893 -4.432 -2.893 -8.007h-1.653l-3.306 -3.306 0.826 -2.479h-1.653c-1.952 -2.188 -3.2 -3.814 -4.132 -6.612l-2.479 -1.653c-0.965 -1.702 -0.965 -1.702 -1.807 -3.667l-0.862 -1.96C254.545 208.264 254.545 208.264 254.545 205.785h2.479l-1.653 -5.785h-2.479z" fill="#D66F00"/><path d="M119.008 271.074c3.075 -0.304 4.518 -0.314 7.077 1.511L128.099 274.587c3.317 3.205 3.317 3.205 7.077 5.837C137.19 281.818 137.19 281.818 137.965 283.574 138.017 285.124 138.017 285.124 137.19 286.777l2.428 -1.084c2.145 -0.625 3.091 -0.674 5.194 0.155 1.897 1.093 3.748 2.243 5.601 3.409 4.248 2.087 7.74 2.898 12.397 3.306l-0.826 3.306h1.653v1.653l-1.653 0.826c-0.937 1.667 -0.937 1.667 -1.653 3.306 -3.926 0.491 -5.963 0.19 -9.194 -2.169 -2.845 -2.336 -5.17 -4.771 -7.335 -7.748v-1.653l-1.879 0.145c-6.344 0.279 -11.164 -0.355 -16.303 -4.278 -4.124 -4.422 -5.678 -8.992 -6.612 -14.876" fill="#D27B1D"/><path d="m242.975 128.099 3.202 0.723q2.116 0.476 4.236 0.93l1.8 0.418c5.127 1.127 10.002 1.523 15.245 1.493l2.372 -0.002c6.963 -0.094 13.488 -1.107 20.252 -2.735 2.041 2.512 3.344 5.007 4.623 7.974l1.184 2.725 1.217 2.835a4893.388 4893.388 0 0 0 2.402 5.545l1.067 2.481c1.071 2.476 1.071 2.476 2.502 5.037C304.132 157.851 304.132 157.851 303.306 160.331l-0.826 -2.479 -4.132 -0.826 -1.653 -8.264h-1.653v-2.479l-2.479 -0.826v-1.653c-9.483 -3.932 -18.792 -4.632 -28.926 -4.959l1.653 -0.826c0.542 -2.088 0.542 -2.088 0.826 -4.132l-1.517 -0.152 -2.098 -0.21 -2.263 -0.222q-2.375 -0.24 -4.745 -0.51l-2.237 -0.249c-0.683 -0.079 -1.366 -0.157 -2.069 -0.24 -0.527 -0.022 -1.055 -0.046 -1.598 -0.07l-0.826 0.826q-2.893 0.05 -5.785 0l0.826 -2.479h-1.653z" fill="#D17717"/><path d="M302.479 54.545h3.306v2.479h1.653v-1.653l3.306 0.826v1.653h1.653a60.331 60.331 0 0 1 2.583 3.409c2.515 3.362 5.089 5.683 8.571 8.003L324.793 70.248v1.653h1.653c1.246 1.388 1.246 1.388 2.583 3.202l1.35 1.802C331.405 78.512 331.405 78.512 331.405 80.165h1.653c3.348 5.276 3.348 5.276 3.151 7.645L335.537 89.256l-0.826 2.479c-3.512 -0.129 -4.702 -0.558 -7.17 -3.148a148.76 148.76 0 0 1 -2.179 -2.999q-1.187 -1.595 -2.382 -3.186l-1.183 -1.587c-1.566 -2.037 -3.269 -3.926 -5.01 -5.816 -3.055 -3.317 -5.859 -6.771 -8.632 -10.324 -1.407 -1.701 -2.864 -3.166 -4.488 -4.655L301.653 57.851c0.288 -1.788 0.288 -1.788 0.826 -3.306" fill="#CD6B01"/><path d="M332.231 107.438c-1.748 6.11 -1.748 6.11 -4.287 7.851 -2.461 0.438 -4.787 0.438 -7.281 0.362 -2.387 0.074 -4.413 0.824 -6.614 1.704v1.653l-4.959 1.653c0.284 2.044 0.284 2.044 0.826 4.132l1.653 0.826c-1.136 1.653 -1.136 1.653 -2.479 3.306h-1.653l-0.152 2.118c-0.377 5.102 -0.805 10.169 -1.501 15.237 -2.719 -3.174 -4.251 -6.86 -5.94 -10.64l-0.922 -1.979c-1.603 -3.574 -2.879 -6.526 -2.229 -10.521 1.898 -2.374 4.179 -3.453 6.893 -4.745l2.664 -1.275 2.788 -1.314 2.701 -1.294a452.893 452.893 0 0 1 13.574 -6.202l2.407 -1.053C329.752 106.612 329.752 106.612 332.231 107.438" fill="#D37B1E"/><path d="M99.174 219.008c1.614 0.587 1.614 0.587 3.306 1.653 0.504 1.788 0.504 1.788 0.62 3.822l0.142 2.047L103.306 228.099l2.479 0.826 0.826 -4.132h1.653l0.826 7.438 2.738 0.362C114.876 233.058 114.876 233.058 117.355 233.884l0.826 -1.653 0.826 1.653 0.826 -1.653h4.959v1.653l-3.306 1.653 1.988 1.569 2.557 2.047 2.557 2.033L130.579 242.975v1.653l4.132 -0.826 -0.826 3.306h-1.653l-0.826 1.653 -1.136 -2.583C126.066 238.916 116.493 236.594 109.091 233.884a159.504 159.504 0 0 1 -7.851 -3.46c-2.67 -0.868 -5.064 -0.781 -7.851 -0.672l0.826 9.091 2.479 0.826c1.182 1.686 1.182 1.686 2.376 3.822 2.058 3.581 4.261 6.907 6.715 10.227l-0.826 1.653c-3.202 -2.273 -3.202 -2.273 -4.132 -4.132l-2.479 -0.826v2.479h-1.653l0.029 -1.54 0.023 -2.025 0.029 -2.004c-0.001 -2.008 -0.001 -2.008 -0.907 -4.349h-1.653l-1.136 -1.24c-1.443 -1.613 -1.443 -1.613 -4.649 -1.24v-1.653l1.653 -0.826 -0.826 -3.306 -3.306 0.826 -1.136 -1.653 -1.343 -1.653h-1.653c0.46 -2.669 1.101 -4.152 3.306 -5.785h3.306l0.826 1.653 1.004 -1.23c1.88 -1.593 2.821 -1.512 5.245 -1.405l1.967 0.069L99.174 225.62h1.653c-0.469 -3.413 -0.469 -3.413 -1.653 -6.612" fill="#D16D00"/><path d="M308.264 142.149c1.836 1.836 2.418 3.376 3.306 5.785l-0.826 -5.785c1.653 0.826 1.653 0.826 2.24 2.302l0.55 1.883c0.825 2.642 1.758 5.04 3.048 7.489 1.54 2.94 2.45 5.771 3.254 8.988h-1.653l-1.653 6.612 3.306 0.826v2.479h1.653l0.982 2.118c1.418 2.89 1.418 2.89 3.46 5.372 3.097 4.181 4.552 9.149 6.302 13.998 0.545 1.38 1.093 2.758 1.653 4.132l-2.479 2.479h1.653l-1.653 3.306 -2.667 -5.788 -0.851 -1.848a5525.62 5525.62 0 0 1 -6.628 -14.445l-0.985 -2.15a1495.868 1495.868 0 0 0 -5.628 -12.134 1554.545 1554.545 0 0 1 -3.283 -7.063 434.711 434.711 0 0 0 -1.559 -3.314c-0.726 -1.529 -1.436 -3.066 -2.143 -4.603l-1.225 -2.61C305.785 147.934 305.785 147.934 306.443 146.132L307.438 144.628z" fill="#D87100"/><path d="M108.264 223.967c2.283 2.283 2.131 4.303 2.479 7.438l1.36 -0.875 1.791 -1.139 1.773 -1.134c3.747 -2.185 7.387 -2.296 11.606 -1.811 3.637 1.117 6.058 2.724 8.678 5.475 1.636 3.681 1.967 7.08 1.24 11.054 -1.262 1.905 -1.262 1.905 -2.479 3.306l-0.826 -1.653 -1.653 0.826 -1.273 -1.12c-3.393 -2.982 -6.812 -5.922 -10.298 -8.798l0.826 -1.653h3.306v-1.653h-4.959l-0.826 2.479 -9.917 -2.479z" fill="#D27C20"/><path d="M335.537 206.612c1.705 0.62 1.705 0.62 3.306 1.653l0.826 2.479h1.653l1.343 2.479c1.292 2.267 2.694 4.339 4.288 6.405C355.372 230.61 355.372 230.61 355.372 233.884h-1.653v1.653l4.959 -2.479 -0.826 4.959 -0.826 -1.653 -1.704 0.413c-2.772 0.471 -5.407 0.44 -8.213 0.413 -3.512 -6.94 -6.979 -13.901 -10.331 -20.919l-0.876 -1.81c-2.017 -4.256 -2.017 -4.256 -2.017 -7.023z" fill="#D37C1F"/><path d="M242.975 127.273c-2.479 0.826 -2.479 0.826 -4.959 0.826l-0.826 4.132c-5.599 -1.573 -11.309 -3.18 -16.529 -5.785l-0.826 -1.653c-1.572 -0.496 -1.572 -0.496 -3.306 -0.826l-2.479 -0.826v2.479h-5.785c-0.103 -4.752 -0.103 -4.752 0.826 -6.612l-6.612 0.826c10.423 -10.423 30.205 2.417 40.496 7.438" fill="#D47F25"/><path d="M76.86 226.446h0.826l0.826 5.785c2.007 0 3.826 -0.413 5.785 -0.826l1.653 3.306h3.306l1.653 4.132h-2.479v1.653l4.132 -0.826 1.653 3.306h1.653c2.317 4.089 1.466 7.948 0.826 12.397h-0.826v-6.612l-1.394 -0.217c-5.946 -1.094 -10.328 -3.241 -14.618 -7.531 -2.924 -4.724 -3.185 -9.182 -2.996 -14.566" fill="#D48027"/><path d="m142.149 285.124 1.604 0.817A699.174 699.174 0 0 0 150.413 289.256l1.604 0.798c3.617 1.686 6.864 2.164 10.793 2.508l-0.826 3.306h1.653v1.653l-1.653 0.826c-0.937 1.667 -0.937 1.667 -1.653 3.306 -3.968 0.496 -5.986 0.17 -9.245 -2.221 -2.504 -2.066 -4.711 -4.106 -6.457 -6.87v-3.306l-4.132 -0.826z" fill="#D07411"/><path d="m152.066 245.455 0.569 1.602c1.248 2.913 2.779 5.587 4.371 8.326C157.851 257.025 157.851 257.025 157.851 258.678l2.479 0.826 -1.653 6.612 2.066 -0.826c3.436 -0.982 5.943 -1.064 9.504 -0.826l1.653 1.653c-2.165 1.443 -3.337 1.973 -5.785 2.479v-1.653l-1.901 0.145c-2.447 0.111 -4.756 0.137 -7.19 -0.145 -1.446 -1.704 -1.446 -1.704 -2.479 -4.132 -2.716 -3.08 -5.689 -5.95 -9.091 -8.264l1.602 -0.62c2.109 -1.005 2.109 -1.005 2.531 -4.339l-7.438 -1.653c2.974 -2.974 5.915 -2.555 9.917 -2.479" fill="#D5832A"/><path d="M357.025 238.017h2.479q0.066 3.589 0.103 7.18l0.041 2.045c0.031 3.684 -0.16 6.409 -1.798 9.783l-0.671 3.048c-1.003 4.264 -3.053 7.99 -5.114 11.828h-1.653l-0.826 4.959h-1.653l-0.826 5.785h-1.653l-0.826 4.132h-1.653c0.444 -2.791 0.917 -5.535 1.653 -8.264v1.653h1.653l-0.517 -2.169c-0.35 -3.153 0.063 -4.868 1.343 -7.748l1.292 -1.24c1.76 -1.837 1.74 -3.736 2.014 -6.198h2.479l0.826 -2.479 1.653 -0.826v-1.653l-1.653 -0.826c0.35 -1.226 0.714 -2.448 1.085 -3.667l0.61 -2.064L356.198 249.587l2.479 -0.826 -0.826 -4.132h-1.653z" fill="#CD6A00"/><path d="m147.934 165.289 2.479 0.826c0.982 2.118 0.982 2.118 1.653 4.132l6.612 -0.826c-7.502 5.002 -20.737 8.454 -29.752 7.438 -1.937 -1.243 -1.937 -1.243 -3.306 -2.479 0.212 -1.936 0.49 -3.866 0.826 -5.785l1.653 -0.826v3.306h2.479v1.653l4.132 -0.826 0.826 -2.479h4.959l0.826 -1.653v3.306a70.248 70.248 0 0 0 5.785 1.653v-1.653l-1.653 -0.826 0.826 -3.306h1.653z" fill="#D78833"/><path d="m315.702 167.769 0.826 1.653c1.674 0.539 1.674 0.539 3.306 0.826v2.479h1.653l0.982 2.118c1.418 2.89 1.418 2.89 3.46 5.372 3.097 4.181 4.552 9.149 6.302 13.998 0.545 1.38 1.093 2.758 1.653 4.132l-2.479 2.479h1.653l-1.653 3.306 -1.264 -2.755 -6.659 -14.51 -2.893 -6.302 -0.905 -1.975 -0.852 -1.854 -0.745 -1.624a63.636 63.636 0 0 0 -1.651 -3.256C315.702 170.248 315.702 170.248 315.702 167.769" fill="#D06C01"/><path d="M272.727 223.967c2.087 0.894 3.36 1.71 4.959 3.358 1.718 1.664 2.635 2.095 4.959 2.427v1.653c6.038 -0.868 11.623 -2.031 17.355 -4.132v2.479h-4.959v2.479c-3.359 0.64 -6.499 0.907 -9.917 0.826l0.826 0.826c0.033 1.377 0.036 2.755 0 4.132h-2.479l1.292 1.498L285.95 241.322l-0.826 2.479 -3.306 -1.653v-1.653h-1.653v-1.653h-2.479l-0.826 -5.785 -2.479 -0.826c-2.008 -3.012 -1.787 -4.721 -1.653 -8.264" fill="#CC6A00"/><path d="M336.364 294.215c0 4.13 -2.574 6.754 -5.01 9.917 -1.438 1.879 -2.431 3.314 -3.306 5.527 -1.099 2.711 -2.652 4.217 -4.907 6.043 -1.756 -0.155 -1.756 -0.155 -3.306 -0.826h-2.479l-0.826 2.479h-1.653l-0.826 1.653h-1.653c1.201 -2.802 2.821 -4.474 4.959 -6.612l0.826 -2.479c4.517 -4.132 4.517 -4.132 6.612 -4.132l0.826 -3.306 3.306 -0.826v-1.653h1.653v-1.653h2.479v-3.306z" fill="#CC6A00"/><path d="M261.983 220.661c3.926 0.62 3.926 0.62 5.785 2.479l2.479 -0.826v1.653l3.306 -0.826 -0.155 3.151c-0.033 2.726 -0.033 2.726 1.291 5.062 1.361 0.926 1.361 0.926 2.996 1.704 1.043 3.698 1.043 3.698 0 5.785h2.479v1.653h1.653a86.777 86.777 0 0 1 3.306 4.132c-2.479 1.653 -2.479 1.653 -5.785 1.653l-0.723 -1.55c-0.878 -1.866 -0.878 -1.866 -2.583 -3.409l-0.826 -1.653 -2.066 -1.911c-2.507 -2.694 -2.893 -4.432 -2.893 -8.007h-1.653l-3.306 -3.306 0.826 -2.479h-1.653c-1.343 -1.653 -1.343 -1.653 -2.479 -3.306" fill="#D07C25"/><path d="M356.198 238.017c0.726 2.56 0.821 4.055 0 6.612h1.653l0.826 4.132 -1.653 0.826 -0.361 2.376c-0.482 2.674 -0.864 3.433 -2.945 5.062l2.479 0.826c-0.952 2.04 -1.693 3.345 -3.306 4.959h-2.479v5.785h-2.479v1.653c-1.55 1.756 -1.55 1.756 -3.306 3.306h-1.653c1.311 -4.198 3.002 -8.163 4.752 -12.19 3.279 -7.646 5.969 -15.417 8.471 -23.347" fill="#D37D22"/><path d="m133.884 246.281 0.826 1.653 -0.826 2.479c2.94 -0.504 5.523 -1.304 8.264 -2.479l-0.826 1.602c-0.887 1.512 -0.887 1.512 -0.826 2.531a218.182 218.182 0 0 0 2.479 4.132h-3.306l2.841 1.136C145.455 258.678 145.455 258.678 146.281 260.331l2.015 1.136C150.413 262.81 150.413 262.81 151.24 264.515c1.167 2.261 2.603 2.488 4.959 3.254l1.653 0.826c0.517 2.118 0.517 2.118 0.826 4.132h1.653v1.653h-2.479l-0.568 -2.014L156.198 270.248a62.81 62.81 0 0 0 -4.132 -0.826 75.207 75.207 0 0 1 -3.306 -3.306l-1.756 -0.826c-1.55 -0.826 -1.55 -0.826 -2.237 -2.431 -1.26 -2.221 -2.359 -2.475 -4.736 -3.303 -2.015 -0.81 -2.015 -0.81 -3.668 -1.704 -0.878 -2.273 -0.878 -2.273 -0.826 -4.132l-3.306 -0.826v-5.785z" fill="#E67900"/><path d="M304.959 165.289h2.479a517.355 517.355 0 0 1 4.132 8.471l1.194 2.376c2.798 5.917 3.455 10.739 2.938 17.252l-1.653 -0.826v-2.479l-1.569 -0.603c-2.199 -1.329 -2.407 -2.182 -3.087 -4.623l-0.623 -2.165 -0.61 -2.268 -0.63 -2.219A800.826 800.826 0 0 1 305.785 171.901c-0.545 -1.93 -1.099 -3.858 -1.653 -5.785z" fill="#D16C00"/><path d="M337.19 282.645c1.041 2.083 0.547 2.769 0 4.959l0.826 1.653c-0.361 1.756 -0.361 1.756 -0.826 3.306h1.653l-0.826 2.479c-1.601 0.62 -1.601 0.62 -3.306 0.826l-1.653 -0.826v3.306h-2.479v1.653h-1.653v1.653l-1.601 0.672c-1.979 0.888 -1.979 0.888 -2.531 3.46 -4.517 4.132 -4.517 4.132 -6.612 4.132 1.186 -2.62 2.646 -4.621 4.494 -6.818 5.286 -6.489 9.874 -13.496 14.514 -20.455" fill="#D6852F"/><path d="m311.57 67.769 5.785 4.959 0.826 -3.306h4.132l0.826 1.653 -0.826 1.653 1.653 0.826v3.306l4.132 -0.826 2.479 4.132 -1.704 1.86c-1.836 2.074 -1.836 2.074 -1.395 4.184L328.099 87.603a90.083 90.083 0 0 1 -7.799 -8.626c-2.136 -2.65 -4.263 -5.182 -6.715 -7.542L311.57 69.421z" fill="#D68732"/><path d="M245.455 193.388c2.04 0.952 3.345 1.693 4.959 3.306h3.306l-0.826 3.306 2.479 -0.826c1.039 2.402 1.653 3.964 1.653 6.612h-2.479l3.306 8.264c-2.855 -0.952 -3.394 -1.643 -4.959 -4.132l-0.413 -1.704c-0.509 -1.972 -1.446 -2.698 -2.893 -4.081v-1.653l-1.911 -0.361c-2.273 -0.476 -4.275 -1.079 -6.354 -2.118 0.826 -1.653 0.826 -1.653 3.306 -2.479z" fill="#D3832F"/><path d="M261.157 208.264c3.84 1.28 5.85 4.281 8.264 7.438 1.085 2.273 1.085 2.273 1.653 4.132 0.539 1.107 1.086 2.212 1.653 3.306l-2.479 0.826v-1.653l-3.306 2.479 -0.671 -1.601c-0.888 -1.979 -0.888 -1.979 -3.461 -2.531l-1.653 -5.785 -2.479 -0.826v-2.479l1.653 -0.826z" fill="#CC6A00"/><path d="m346.281 270.248 1.653 1.653 -0.826 1.343c-1.014 2.408 -0.944 4.334 -0.826 6.921h-1.653l0.103 1.912C344.628 284.298 344.628 284.298 342.975 286.777h-1.653v1.653h-4.132c-0.826 -1.653 -0.826 -1.653 -0.481 -3.238 1.423 -4.198 2.974 -7.94 5.44 -11.638l2.479 -0.826z" fill="#CE720E"/><path d="M199.174 10.744c24.312 -0.322 46.672 0.142 70.248 6.612v0.826a102.479 102.479 0 0 1 -14.514 -2.427c-15.868 -3.595 -31.302 -3.549 -47.469 -3.358v1.653l1.653 0.826h-9.917v-0.826h4.959v-2.479h-4.959z" fill="#F3DCC5"/><path d="M203.306 370.248h9.917l-1.653 1.653c3.611 0.694 7.012 0.923 10.686 0.907l3.228 -0.008 3.338 -0.021q1.698 -0.007 3.397 -0.011 4.138 -0.015 8.277 -0.04v0.826c-8.531 0.83 -16.971 0.936 -25.533 0.907l-4.179 -0.004q-5.442 -0.005 -10.886 -0.02 -5.578 -0.012 -11.154 -0.017 -10.901 -0.013 -21.802 -0.04v-0.826c13.507 -0.648 26.973 -0.945 40.496 -0.826v-1.653h-4.132z" fill="#DDC3B3"/><path d="M393.388 165.289h0.826c2.656 17.717 6.56 46.603 -2.479 62.81a282.645 282.645 0 0 1 -0.103 -4.08l-0.058 -2.296c0.131 -2.212 0.425 -3.823 0.988 -5.926 1.138 -5.012 1.033 -9.96 0.988 -15.078l-0.007 -3.081a2624.793 2624.793 0 0 0 -0.051 -9.674q-0.014 -3.294 -0.022 -6.588 -0.028 -8.045 -0.081 -16.088" fill="#EFD0AF"/><path d="M335.537 88.43c2.469 3.704 2.523 5.5 2.347 9.84 -0.043 1.915 -0.043 1.915 1.785 3.383l0.826 -4.959h0.826q0.098 2.014 0.155 4.029l0.087 2.266L341.322 104.959l-2.479 1.653v-1.653l-1.86 0.879c-2.382 0.812 -3.274 0.802 -5.579 -0.052l5.785 -2.479q-0.951 -1.759 -1.911 -3.512l-1.075 -1.975c-1.097 -1.865 -2.294 -3.554 -3.626 -5.256l0.826 -1.653 3.306 0.826z" fill="#D98F40"/><path d="M308.264 142.149c1.786 1.786 2.245 2.91 3.048 5.269l0.681 1.931c0.445 2.088 0.131 3.174 -0.423 5.198l0.826 2.479h1.653c0.889 3.202 0.782 4.566 -0.826 7.438a696.694 696.694 0 0 1 -3.822 -8.058l-1.117 -2.306 -1.033 -2.226 -0.97 -2.046c-0.495 -1.893 -0.495 -1.893 0.188 -3.636L307.438 144.628z" fill="#D47A19"/><path d="m242.975 128.099 3.202 0.723q2.116 0.476 4.236 0.93l1.684 0.423c6.231 1.448 12.296 1.418 18.667 1.333l3.231 -0.022q3.912 -0.03 7.822 -0.081v0.826c-2.911 0.661 -5.601 0.932 -8.584 0.936l-2.558 0.003 -2.649 -0.01 -2.601 0.01c-4.824 -0.007 -9.522 -0.23 -14.309 -0.843L249.587 132.231l-0.826 0.826q-2.893 0.05 -5.785 0l0.826 -2.479h-1.653z" fill="#E7B886"/><path d="m144.018 247.873 2.004 0.32 2.025 0.3L149.587 248.76l0.826 2.479c-1.291 1.705 -1.291 1.705 -3.306 3.306 -3.498 -0.123 -5.34 -0.529 -8.264 -2.479 1.26 -2.519 2.216 -4.097 5.175 -4.193" fill="#CC6A00"/><path d="M241.322 182.645c4.904 3.883 8.616 8.253 12.397 13.223l-0.826 1.653c-3.207 -0.475 -5.081 -1.966 -7.438 -4.132l-0.826 -2.479c-1.653 -0.999 -1.653 -0.999 -3.306 -1.653l2.479 -2.479 -1.24 -1.136C241.322 184.298 241.322 184.298 241.322 182.645" fill="#CD6B00"/><path d="M338.843 104.959c-0.067 2.286 -0.469 3.728 -1.995 5.453 -2.988 2.678 -5.611 4.324 -9.575 5.291l2.479 -2.479 -2.479 -1.653h3.306l0.826 -4.959c4.649 -1.653 4.649 -1.653 7.438 -1.653" fill="#D06C00"/><path d="M98.347 250.413c1.967 0.145 3.06 0.576 4.445 1.985 1.026 1.243 2.012 2.521 2.993 3.8l-3.306 1.653 -0.826 -0.826 -0.826 2.479 -3.306 0.826 -0.826 -7.438h1.653z" fill="#CF7310"/><path d="m133.884 246.281 0.826 1.653 -0.826 2.479c2.94 -0.504 5.523 -1.304 8.264 -2.479l-0.826 1.602c-0.887 1.512 -0.887 1.512 -0.826 2.531a218.182 218.182 0 0 0 2.479 4.132l-7.438 -0.826v-1.653l-3.306 -0.826v-5.785z" fill="#DB811F"/><path d="M254.545 205.785c5.475 -0.207 5.475 -0.207 8.264 1.653l-3.306 6.612 1.653 0.826v1.653l1.653 0.826v2.479h-1.653l-0.826 -2.479 -2.479 -1.653c-0.965 -1.702 -0.965 -1.702 -1.807 -3.667l-0.862 -1.96C254.545 208.264 254.545 208.264 254.545 205.785" fill="#D17C24"/><path d="M163.636 160.331v2.479Zm-3.306 2.479h2.479l-0.826 4.132h-1.653v1.653c-2.992 1.088 -5.038 1.653 -8.264 1.653l-1.653 -4.132 2.479 -1.653 2.479 1.653c2.417 0.185 2.417 0.185 4.132 -0.826z" fill="#CC6A01"/><path d="M306.612 165.289c1.731 2.187 3.038 4.278 4.168 6.825l0.879 1.979 0.893 2.044 0.922 2.063C315.702 183.253 315.702 183.253 315.702 185.124h-1.653v-2.479h-1.653l-0.826 3.306 -0.826 -8.264 -1.653 0.826q-0.449 -1.599 -0.878 -3.202l-0.494 -1.802C307.438 171.901 307.438 171.901 308.264 170.248l-2.479 -0.826z" fill="#E0A15D"/><path d="m185.95 370.248 21.488 0.826v1.653h-21.488z" fill="#5B436F"/><path d="m63.636 54.545 1.653 0.826C51.721 70.737 51.721 70.737 47.107 72.727c1.188 -2.736 2.665 -4.495 4.804 -6.56 0.884 -0.864 0.884 -0.864 1.788 -1.744L55.372 62.81l2.221 -2.221z" fill="#9384A1"/><path d="m272.727 236.364 7.438 2.479v1.653h1.653a86.777 86.777 0 0 1 3.306 4.132c-2.479 1.653 -2.479 1.653 -5.785 1.653l-0.723 -1.55c-0.878 -1.866 -0.878 -1.866 -2.583 -3.409l-0.826 -1.653 -2.479 -1.653z" fill="#CE7B27"/><path d="M332.231 197.521h3.306c3.66 6.021 3.66 6.021 4.132 9.917l-1.653 -0.826v-1.653h-1.653v-1.653h-2.479l-0.826 1.653 1.653 0.826 -1.653 1.653c-0.93 -4.752 -0.93 -4.752 0 -6.612h-1.653z" fill="#D66F00"/><path d="M356.198 238.017c0.726 2.56 0.821 4.055 0 6.612h1.653l0.826 4.132 -5.785 4.132c-1.122 -3.367 0.044 -5.632 1.188 -8.832l0.608 -1.758c0.496 -1.431 1.002 -2.86 1.509 -4.286" fill="#DB9448"/><path d="m330.579 82.645 1.653 4.959 1.653 -0.826 0.826 4.959c-2.273 0.052 -2.273 0.052 -4.959 -0.826 -1.464 -2.351 -2.408 -4.824 -3.306 -7.438 1.653 -0.826 1.653 -0.826 4.132 -0.826" fill="#D17615"/><path d="m317.355 309.917 0.826 2.479 -1.236 1.179 -1.605 1.56 -1.598 1.54c-1.53 1.512 -1.53 1.512 -2.173 3.987 -2.324 1.292 -2.324 1.292 -4.959 2.479q-1.657 0.82 -3.306 1.653c4.356 -5.298 9.166 -10.071 14.05 -14.876" fill="#DFA05D"/><path d="M298.347 148.76h1.653a409.917 409.917 0 0 1 2.118 4.391l1.19 2.469C304.132 157.851 304.132 157.851 303.306 160.331l-0.826 -2.479 -4.132 -0.826q-0.24 -1.833 -0.464 -3.667l-0.262 -2.064L297.521 149.587z" fill="#DC9447"/><path d="M119.835 266.942c4.728 1.926 7.702 5.974 10.744 9.917 -2.086 -0.894 -3.287 -1.631 -4.803 -3.357 -2.41 -2.135 -4.457 -2.073 -7.593 -2.428l-0.826 -1.653z" fill="#D06D03"/><path d="M231.405 186.777h2.479v1.653h1.653l0.826 1.653 2.066 1.24c2.066 1.24 2.066 1.24 2.893 2.893l1.653 -0.826v1.653h1.653l-1.653 3.306c-4.752 -3.099 -4.752 -3.099 -6.612 -4.959l-2.117 -2.014C232.231 189.256 232.231 189.256 231.405 186.777" fill="#F3EBE8"/><path d="M315.702 185.124c1.917 1.917 2.736 3.69 3.874 6.147l1.145 2.424C321.488 195.868 321.488 195.868 320.661 198.347l-1.653 2.479c-0.93 -5.579 -0.93 -5.579 0 -7.438h-2.479l-0.826 1.653c-1.063 -7.083 -1.063 -7.083 0 -9.917" fill="#DD984D"/><path d="m315.702 167.769 0.826 1.653c1.674 0.539 1.674 0.539 3.306 0.826v2.479h1.653l1.653 5.785h-1.653l-0.826 1.653a808.264 808.264 0 0 1 -2.479 -4.803l-1.394 -2.702C315.702 170.248 315.702 170.248 315.702 167.769" fill="#D78630"/><path d="m325.62 190.083 1.653 0.826v1.653l1.55 0.259C330.579 193.388 330.579 193.388 332.231 195.868c-0.31 2.635 -0.31 2.635 -0.826 4.959h1.653l-1.653 3.306a1941.322 1941.322 0 0 1 -2.893 -6.095l-0.836 -1.75C325.62 191.923 325.62 191.923 325.62 190.083" fill="#E0A360"/><path d="m347.107 262.81 1.653 1.653 1.653 -0.826v4.959h-2.479v1.653c-1.55 1.756 -1.55 1.756 -3.306 3.306h-1.653c1.172 -3.696 2.573 -7.199 4.132 -10.744" fill="#DA9042"/><path d="m346.281 270.248 1.653 1.653 -0.826 1.343c-1.014 2.408 -0.944 4.334 -0.826 6.921h-1.653l-0.826 -1.653h-3.306c0.672 -2.427 0.672 -2.427 1.653 -4.959l2.479 -0.826z" fill="#D27A1C"/><path d="m157.851 263.636 0.826 2.479 2.066 -0.826c3.436 -0.982 5.943 -1.064 9.504 -0.826l1.653 1.653c-2.165 1.443 -3.337 1.973 -5.785 2.479v-1.653h-9.091z" fill="#E1A361"/><path d="m332.231 107.438 -1.653 4.132 -8.264 -0.826c6.103 -4.577 6.103 -4.577 9.917 -3.306" fill="#DA9347"/><path d="M169.421 266.116c3.048 0.412 4.632 0.909 6.612 3.306l-0.826 2.479 -2.479 0.826 -1.653 -0.826a106.612 106.612 0 0 1 -1.653 -5.785" fill="#D6842D"/><path d="m139.669 153.719 1.653 0.826a1010.744 1010.744 0 0 1 -4.39 4.907l-1.251 1.412c-3.169 3.504 -3.169 3.504 -5.929 4.425 1.312 -3.226 3.417 -5.236 5.888 -7.645l2.279 -2.234z" fill="#E5B078"/><path d="M59.504 94.215h0.826v6.612l1.653 0.826 -0.826 2.479 2.479 0.826h-4.132c-0.324 -1.167 -0.631 -2.339 -0.93 -3.512l-0.523 -1.975c-0.236 -2.298 0.255 -3.321 1.453 -5.256" fill="#5A4070"/><path d="M311.57 151.24c4.116 3.983 4.116 3.983 4.184 7.955L315.702 161.983l-1.653 0.826v-5.785l-2.479 0.826c-0.811 -2.523 -0.811 -4.088 0 -6.612" fill="#D06C00"/><path d="m133.884 246.281 0.826 1.653 -0.826 2.479h4.132c0 3.306 0 3.306 -0.826 4.959h-1.653v-1.653l-3.306 -0.826v-5.785z" fill="#E5943B"/><path d="M304.132 160.331c2.479 3.099 2.479 3.099 2.479 4.959l-1.653 1.653 -0.826 2.479c-2.543 -4.475 -2.543 -4.475 -2.221 -6.921L302.479 161.157l1.653 0.826z" fill="#D78226"/><path d="m322.314 179.339 0.672 1.602c0.888 1.978 0.888 1.978 3.46 2.531l-0.826 6.612c-4.269 -6.402 -4.269 -6.402 -3.874 -9.401z" fill="#DF9E59"/><path d="M340.496 96.694h0.826q0.098 2.014 0.155 4.029l0.087 2.266L341.322 104.959l-2.479 1.653v-1.653l-1.86 0.879c-2.382 0.812 -3.274 0.802 -5.579 -0.052 2.786 -1.238 4.301 -1.653 7.438 -1.653z" fill="#E08E35"/><path d="M285.95 238.017c4.029 1.446 4.029 1.446 4.959 3.306 -1.963 1.292 -1.963 1.292 -4.132 2.479 -1.653 -0.826 -1.653 -0.826 -2.273 -2.427L284.298 239.669z" fill="#D68732"/><path d="M309.917 155.372c2.479 0.826 2.479 0.826 4.132 1.653 0.774 2.384 1.064 3.608 0.013 5.924L313.223 164.463a723.14 723.14 0 0 1 -1.653 -3.616l-0.93 -2.033C309.917 157.025 309.917 157.025 309.917 155.372" fill="#E2A768"/><path d="M204.132 11.57h5.785l-2.479 0.826v1.653l1.653 0.826h-9.917v-0.826h4.959z" fill="#E8C19A"/><path d="M321.488 198.347c1.653 2.104 3.162 4.104 4.132 6.612l-0.826 2.479 -1.653 -2.479 -1.653 0.826 0.826 -4.132h-1.653z" fill="#DFA15E"/><path d="m332.231 197.521 3.306 3.306c-0.826 2.479 -0.826 2.479 -2.479 4.132l1.653 0.826 -1.653 1.653c-0.93 -4.752 -0.93 -4.752 0 -6.612h-1.653z" fill="#D57E20"/><path d="M315.702 161.157h1.653v5.785l-2.479 0.826c-0.517 -2.376 -0.517 -2.376 -0.826 -4.959z" fill="#D68024"/><path d="M185.95 157.851c2.789 -0.103 2.789 -0.103 5.785 0l1.653 1.653c-6.14 2.007 -6.14 2.007 -9.091 0.826h1.653z" fill="#CC6A00"/><path d="m323.14 302.479 1.653 3.306c-4.752 4.132 -4.752 4.132 -6.612 4.132 1.262 -2.84 2.975 -5.058 4.959 -7.438" fill="#DFA15F"/><path d="M261.983 220.661c1.912 0.103 1.912 0.103 4.132 0.826 1.55 2.428 1.55 2.428 2.479 4.959l-0.826 1.653 -2.479 -0.826 0.826 -3.306h-1.653c-1.343 -1.653 -1.343 -1.653 -2.479 -3.306" fill="#E9C3A0"/><path d="M190.909 122.314h4.959c-2.383 1.854 -4.732 3.606 -7.438 4.959 -1.911 -0.258 -1.911 -0.258 -3.306 -0.826l0.826 -1.653 4.132 -0.826z" fill="#E5B586"/><path d="M252.893 206.612h1.653l3.306 6.612h-2.479c-2.317 -2.402 -2.479 -3.131 -2.479 -6.612" fill="#F5E7DB"/><path d="M168.595 166.116c-2.36 1.573 -3.653 2.035 -6.353 2.583l-2.025 0.42L158.678 169.421l1.653 -0.826v-1.653c2.87 -0.957 5.256 -0.883 8.264 -0.826" fill="#E5B079"/><path d="M183.471 128.926c-0.878 1.653 -0.878 1.653 -2.479 3.306 -3.047 0.207 -3.047 0.207 -5.785 0 2.149 -2.488 5.008 -4.934 8.264 -3.306" fill="#E1A464"/><path d="m315.702 167.769 0.826 1.653c1.674 0.539 1.674 0.539 3.306 0.826l-0.826 4.959c-1.641 -1.641 -2.409 -2.844 -3.306 -4.959z" fill="#E2A86A"/><path d="m307.438 144.628 1.653 0.826 -0.826 5.785 -2.479 -3.306z" fill="#DC9447"/><path d="m131.405 165.289 0.826 3.306h-2.479l-1.653 3.306 -0.826 -2.479z" fill="#CD6900"/><path d="m152.066 245.455 0.826 1.653 -1.653 1.653 -1.653 -1.653c-2.961 -0.138 -2.961 -0.138 -5.785 0 3.012 -2.008 4.721 -1.787 8.264 -1.653" fill="#F4DEC7"/><path d="M328.926 214.876c1.292 1.033 1.292 1.033 2.479 2.479 -0.258 1.808 -0.258 1.808 -0.826 3.306l-2.479 -0.826z" fill="#E5B37C"/><path d="m142.975 167.769 2.479 0.826v2.479h1.653v1.653h-4.132z" fill="#CC6900"/><path d="M102.479 138.843c0.826 3.306 0.826 3.306 0.826 5.785l-3.306 1.653z" fill="#7E6A8E"/><path d="m300.826 120.661 -0.723 1.395c-0.964 1.981 -1.784 3.99 -2.583 6.043h-0.826c-0.303 -4.545 -0.303 -4.545 1.136 -6.508C299.174 120.661 299.174 120.661 300.826 120.661" fill="#E8B987"/><path d="m272.727 236.364 5.785 2.479 -0.826 3.306c-1.653 -0.826 -1.653 -0.826 -2.479 -2.479l-2.479 -1.653z" fill="#C29880"/><path d="m166.116 167.769 1.653 0.826Z" fill="#FDFDFD"/><path d="" fill="#FFFEFE"/><path d="" fill="#FDFCFC"/><path d="" fill="#FEFDFD"/><path d="" fill="#FAF8F7"/><path d="" fill="#FEFDFD"/><path d="" fill="#FFFEFE"/><path d="" fill="#FEFDFD"/><path d="" fill="#FFFEFE"/></svg>